<mxfile host="app.diagrams.net" modified="2023-11-02T16:15:36.716Z" agent="Mozilla/5.0 (Windows NT 10.0; Win64; x64) AppleWebKit/537.36 (KHTML, like Gecko) Chrome/117.0.0.0 Safari/537.36" etag="NjeV-x6KSJ2J3xQZwXaw" version="22.0.8" type="github">
  <diagram name="Page-1" id="befe702f-0dee-7ce4-ef18-aae07000cfe7">
    <mxGraphModel dx="3747" dy="2443" grid="1" gridSize="10" guides="1" tooltips="1" connect="1" arrows="1" fold="1" page="1" pageScale="1" pageWidth="1100" pageHeight="850" background="none" math="0" shadow="0">
      <root>
        <mxCell id="0" />
        <mxCell id="1" parent="0" />
        <mxCell id="A9gymC7fybR9dy0JzckG-38" value="&#xa;&lt;ul style=&quot;box-sizing: border-box; padding-left: 2rem; margin-bottom: 1rem; margin-top: 0px; padding-inline-start: 2rem; color: rgb(34, 40, 50); font-family: -apple-system, BlinkMacSystemFont, &amp;quot;Segoe UI&amp;quot;, &amp;quot;Helvetica Neue&amp;quot;, Arial, sans-serif, &amp;quot;Apple Color Emoji&amp;quot;, &amp;quot;Segoe UI Emoji&amp;quot;, &amp;quot;Segoe UI Symbol&amp;quot;; font-size: 16px; font-style: normal; font-variant-ligatures: normal; font-variant-caps: normal; font-weight: 400; letter-spacing: normal; orphans: 2; text-align: start; text-indent: 0px; text-transform: none; widows: 2; word-spacing: 0px; -webkit-text-stroke-width: 0px; background-color: rgb(255, 255, 255); text-decoration-thickness: initial; text-decoration-style: initial; text-decoration-color: initial;&quot; class=&quot;simple&quot;&gt;&lt;li style=&quot;box-sizing: border-box;&quot;&gt;&lt;p style=&quot;box-sizing: border-box; margin-bottom: 0.25rem; margin-top: 0px; color: var(--pst-color-text-base); font-size: 1em;&quot;&gt;Refugee/IDP camp planning&lt;/p&gt;&lt;/li&gt;&lt;/ul&gt;&#xa;&#xa;" style="ellipse;whiteSpace=wrap;html=1;aspect=fixed;fillColor=#f5333f;strokeColor=#b85450;" vertex="1" parent="1">
          <mxGeometry x="-207" y="-357" width="1470" height="1470" as="geometry" />
        </mxCell>
        <mxCell id="A9gymC7fybR9dy0JzckG-1" value="Georeff" style="ellipse;whiteSpace=wrap;html=1;aspect=fixed;fillColor=#eff2f3;strokeColor=#6c8ebf;" vertex="1" parent="1">
          <mxGeometry x="41.75" y="-126.25" width="972.5" height="972.5" as="geometry" />
        </mxCell>
        <mxCell id="70666756c84bb93c-1" value="" style="ellipse;whiteSpace=wrap;html=1;rounded=0;shadow=0;comic=0;strokeWidth=1;fontFamily=Verdana;fontSize=14;strokeColor=none;fillColor=#a8aaac;" parent="1" vertex="1">
          <mxGeometry x="228" y="60" width="600" height="600" as="geometry" />
        </mxCell>
        <mxCell id="70666756c84bb93c-2" value="&lt;font&gt;GIS in Humanitarian Assistance&lt;/font&gt;" style="ellipse;whiteSpace=wrap;html=1;rounded=0;shadow=0;comic=0;strokeWidth=1;fontFamily=Verdana;fontSize=22;strokeColor=none;fillColor=#FFFFFF;fontColor=#f5333f;fontStyle=1;labelBorderColor=none;" parent="1" vertex="1">
          <mxGeometry x="398" y="230" width="260" height="260" as="geometry" />
        </mxCell>
        <mxCell id="70666756c84bb93c-8" value="Visualisation, &lt;br&gt;Organisation and&lt;br&gt;&amp;nbsp;processing of &lt;br&gt;spatial data" style="shadow=0;dashed=0;html=1;strokeColor=none;fillColor=#ffffff;labelPosition=center;verticalLabelPosition=bottom;verticalAlign=top;shape=mxgraph.office.services.central_management_service;rounded=0;comic=0;fontFamily=Verdana;fontSize=14;fontColor=#FFFFFF;" parent="1" vertex="1">
          <mxGeometry x="290" y="351" width="60" height="69" as="geometry" />
        </mxCell>
        <mxCell id="31q_25wvS2AyfgsETEu2-13" value="Digital System that connects&#xa;Â data to maps" style="shape=image;verticalLabelPosition=bottom;labelBackgroundColor=none;verticalAlign=top;aspect=fixed;imageAspect=0;image=data:image/png,iVBORw0KGgoAAAANSUhEUgAAAewAAAJnCAMAAAEVbKBCAAAAAXNSR0IArs4c6QAAAARnQU1BAACxjwv8YQUAAAMAUExURQAAAP7+/v////7+/v7+/v7+/v7+/v7+/v7+/v7+/v////7+/v7+/v7+/v7+/v7+/v7+/v7+/v7+/v7+/v////7+/v7+/v7+/v////7+/v////7+/v7+/v7+/v7+/v7+/v7+/v7+/v7+/v7+/v7+/v7+/v7+/v7+/v////7+/v7+/v7+/v7+/v7+/v7+/v7+/v7+/v////7+/v7+/v////7+/v7+/v7+/v7+/v7+/v7+/v7+/v7+/v7+/v7+/v////7+/v////7+/v7+/v////7+/v7+/v7+/v7+/v7+/v7+/v7+/v7+/v7+/v7+/v7+/v7+/v7+/v7+/v////7+/v7+/v////7+/v7+/v7+/v7+/v////7+/v7+/v7+/v7+/v7+/v7+/v////7+/v7+/v7+/v7+/v7+/v7+/v7+/v////7+/v7+/v7+/v////7+/v7+/v7+/v7+/v7+/v7+/v7+/v7+/v7+/v7+/v7+/v7+/v////7+/v7+/v7+/v7+/v////7+/v7+/v7+/v7+/v7+/v////7+/v////7+/v7+/v7+/v7+/v7+/v7+/v////7+/v7+/v////7+/v7+/v7+/v7+/v7+/v7+/v7+/v7+/v7+/v7+/v7+/v7+/v7+/v7+/v7+/v7+/v7+/v7+/v7+/v7+/v7+/v7+/v7+/v7+/v7+/v7+/v7+/v////7+/v7+/v7+/v7+/v7+/v7+/v7+/v7+/v7+/v7+/v7+/v////7+/v7+/v7+/v7+/v7+/v////7+/v7+/v7+/v7+/v////7+/v7+/v////7+/v7+/v7+/v7+/v////7+/v7+/v7+/v7+/v////7+/v7+/v7+/v7+/v7+/v7+/v7+/v7+/v7+/v7+/v////7+/v7+/v////7+/v7+/v7+/v////7+/v7+/v7+/v7+/v7+/v////7+/v7+/v7+/v7+/v7+/v7+/v////7+/v7+/v7+/v7+/v7+/v7+/v7+/v7+/v7+/v////7+/v7+/v7+/v7+/jE1phIAAAEAdFJOUwCvQBpbnAfdSInwyjV2t/hjpOWRItI9fg+/UCprrBftWJnaRYbHMnMEtB/1oeJNjs9gOnsMvCf9aKnqltdCgxTEVS9wAbEc8l2eCd9Kize5JPplzKbneFKT1D8RwSxtrhnvgFqb3EfJNHUGtiH3iGKjDuRPkNF9vilqqzwW7FeY/9mFxjFyA7NE9F8L4UyNHs45oHq7JvxnqBPpVJXWQYLDLm+wG/Fcnd5Jiss2dwi4I/lkpeZRktM+fxArbK3uWcCa20aHGMh0BbX2YaIzDeNOjyDQO3y9/mkV61aXKNhDqoTFcQKyHfNenzDgS4zNOHkKuiX7pxLoU5TVZoHCLW4vsBJYAAAACXBIWXMAAA7DAAATYAFWu3dtAABgJklEQVR4Xu2dCbxWw//Hn58IhSxFlCJbStZ0LVniEmUpZAkpa/oJ5RchDHJJka2bQkIUERFSpFBuUbJeJVsuUZZfufIT8j8z5zNz5sxyluc5z3Of2/+8X6+6M9/vzJzzPM95zjNn5rtkUvLBg4SxGNV4nO12piyDKAaTab/PWpatZANAGBm5z5LY/Z0Ol6JIidufkNtQconXn5BK/CXkCJTYn0j0cRvTzhRaHhajPyFl7H+OK6P/R4I1XUPINqjR6gRSj9XCGU8GOP8TUsetOqU57H+3FgpriHNmQOBWQtFa59i9ilaqyJWohuB27+pWGNqAQdB2D5DGqFFidz/A1zZ29wwZ71YYWXSXG9PKVuRN1ELQuhPSTxkvCHTf1605aOMFozR3L8DY3dF+CCvUi3rV8AM5/a/LZNZ3/hwiZJH4xr3ZOB0Z27sV+n800Laa9WZFQmayv5EgpAolTpyD66075dY9Xu/MDDIPJZeY3ZX2hDRCKSKE7IYSJe7B/T2m5NY9fu9Mmdfn4yy6S4eM2Ps0do1KuOKBqAlcsQa0HhaxekEDaCWo9FeUJVhrFS7+1Dus97/31yv4IaQh/fO2UL9ISztF787x6vx/VqX/rxIlBdrORa4fy/5/x603oOXznH9uCx9U+AMhU0WVvM2GyLRFe1oBrIUfRciqpW5TdGB/nP+mKU0phExCiXEH6U7/oKHS3tgdhVdXrXLen6NJCau1ZP9H777WOTtaJmQ9V+BAyASUgNafkKedf+QB+h+6EzKKaujr91rTChll6A4VCqLGQKPMeqgHdOe1TD+3Lt3naCVzC5P5+xNyUuYVckwm8z9UXXXZ5n8tZwWK810QvbTufpHTcFcUXf5H+5IK1MK60/4oMVhnSfKdT72MbKCO6O/v1A5A0UXROv8NVfuj4ODXUPTukuho519w9z3xvEHpRv6mf+gFUk4Lzt8S+eSd50GUPCQRLzpdJFxZpuplryxh6M6mQayn8+iyFRNMgEDjYSFcSnqhpMM6z0LFh+huGpxj1+XY/RNyEPt7IDvBbGDdUc4C1j3zXZa4vVNS1gm6ut+JK1CNhduVAUkMWLdJZRXORJiQ/SGMitNlMIpsIBSj4W/fkZDjUIyCerA2cQ5egcbOVBTLg3HOnZC73T+Mu9wy/T8SblPak60y0tr5kbsT8iv7321/ASG9WZXVwmENeedM5n3U3VooamtCXmH/u7UQfiSbZjK/yI3V4YLQ29be3pNz6q1L7OTWm7WrRx5EzSF2b7nxdbS8CXkI1RDQe4Zb00cLhpDh7P/NeDVWb7flPKfXmZlMX3xdYvamx3TxRJEgpCn+OlyAIvsTCa3tVjn1jtM5c6TaOlZvtTUhv6AUCUIuQokR79BKe3xq0SFkLUoOcTv7etyfU+/4naWVsAei9WYXpoRFTHdydC6H1oOJj0bFg4lVoJMIEqtwMf/7DisMVsUzjSuhX0PtDc4KvDaXvO0WhMSHe1YUtz6fFXdz/nuPVl35A86kIrj3hqz6Nyu3ZP+z5oQcysrNxQ1Pgr7K2WhIoUW2FpJ5zZXeSyvAbSKhiAjpz/7HYd3/ybX0APWi9Jb+KLoScjpKnNtEi1WrVk0XHdxdJqW3VvcEeF04Z8ZjUXpXOT2cWSKDdb+RaaY7pcNZyYEtjT1YIj57l+FOB6pwcGr4T+A+cjug7gCBi3s058eS7MdqVPs7a+bAWjg4X1WnMsAnY7i9nYJ7Sly97/E7sL8MqRMh26FEYctwQpfJnKWOTufYssynZhVZsp2/+0LWdyVqDsG9xRTdhfbtgzLDnfkCvbdT64aSg19FkSRuEVvXYJxPvyNKAq2384eQnZy/Fzl/DyHkRCak+IZ1IWQRSqVcS7t7uLJMT6ksIWSeclPWjfSi47gSV+CWfRh669C+YuolQ0gnXnD/GiDEWyZVQK/gQ6OgI3pnSW693cVgrD3FhnVOSUkpSt65iD7vkeuuGgNBYdiR3VpkSvaEKr/sgsNpvIgGeaMSB3oEdUrpfhBeB0FecA8xGTUfdJ+JMAOwvNCODS/PtXzcyNSoJAwb+hpUGLMvabUaRQb7QJ5AJUnYoVHOZI5hVeDM513YFPsrVJKDHQRlw08+FEzzF8pJsZl0AFp0+N6t7eXWWrg1prTYa2QLHVIqkg9QYYxkIlSkYjIoY8vGQQwqRINznVIMM61wvKFpyTVw8PGDv4VbSoRy38DyPU1AFe5NfZVT8pl05AYdWC2p+NoMcUtJIMbt5BR6sJKGaBNwftkgRqOPPaygM0OoROtEEKPd5hSMH3cBXnfAuL42bdxSErztDHc7K3lHUBjsKNwrzNokS8R4k2wje3Jbi2zZ1hlvH1Zqbh6aSgeJkuHmkwN0RLfEZqfnuGUO2z6c75Zp0S0lxWXOiNVucSc6uuRGMYjV+fGkYmLQMadJZQU+YXjDKd+KcnLQI6CYyexOax6XQJypS2soJ8j16rB7MPPEeT6bLbVNUrCLDGULtMXWKCcLHflqlI3QBs1RTho6dinKBm6gepSTJ3BwZqSLch64MGj4/B46kznFfgCqSXCqZOA928GpvAvK+YIew3BwKtVmzolDj4I7uwcVvotyPqHHUV45ldRHOWfY+EH4DBAgCwANo4AeQbg7eAxIglCMrAM43WnduosE7d4LZQqts71GCq1UQ0GhdRRdqABtw1Eb0/polF2o5Hev6FuBoQIUgS6xQps6HDXCKTPzNQf/m7YRk/WlRVbq3IqJGbSOImeNI9oF5WC+ob0V1kBHeQEyB3GeDtyGnlXoRuLIg2iJXZS0QP+GQhvOPp/+79LX56sGt1nSDX+dLxf+8tEXoKoCdRC0GbaAeg50/0qwuYr72dOSw8G07Nreu3YtQuNA59acF6C1w1xoUNZh++Eou4d4ABVWQ5E2E/aK/yIHlvm1VoIbPepoT0A5k5nDPAAB9U1D0UTwuAzaxH2+4IymIgqr0UJbVlKw/sABqj4UZTP0iY6O4Pw/la1U0U1xDvVfmMpKGyq2HnRJwAE1iVLnqbz/enVp0dxAAg2Oon8FXd91oIWhvInLxPGP7ncgrPQdOlKtTGlraDygMUHVd+CvwFUxGXNjybRnYgXt/YRVr5/NodRhT1a04PypzGSen+L89e6lVClOfI9lrMpo43fpoLgr2t4z4/RTcD9AXYcrLY2oOPz5dk921VHOh4RzGBWirELvG+fSgq3NW1RByJ+oapzs6hl7QSZD5Z77kkwfqmIl56/ni+KD/R5ShyATTMf4LyQqVIeiH09BS7Y3x95/Q6r5X+Aa8iOWzvRR718o0ya2g/tuqxKNA/oIaJt2KEv4utIKmef7bCqxjsRUTOLHIlYwtlKEtGoHjSTepGL36x/IAYbuZziiN1BmPOmaf5tAC0ZbaSYRaUGPNhTOZS5UhKLM99TMiOFOIMYTMoUVAJQMYbcUDG2KoosmiMZLtB/peGBP1KNwj9OjAcqUE5263SvLDj0yitGhnSQDJVodHR96v2+BcnTYnR0Hdg9dYLyAARAUEBw4JSUlJSUl5f8Ll+yxgj7oTl7Dnh4LyMoV7uwDvAxxIaCmDX46Q5Nv+uN4fm6CNq/gWBpsZTevsGc+xuVtK1qWteyzfA7qeZ97Po/D7CI/4pdBmN+D/+Ueww0ZIwPzzYDN0lzB8qEwEZTYwFWhljzue8uCj+gwd4z8HZwNLofg88PUljPLlbFscFRMMH2EdY8sYEOjzOj0XRcegpHhblagkijKwIOuYgJC3oLA4T+0HrxInhXsRW2Lim9ZnTwLoeGtSQbfsNTKR0a89bSiLuHmDh2VBgWiUP9DPyy+lQMzTkc5MdgRUKYrRS698BdByhxoOWlraDrmYW6RBhpzGOu+C9e6sQv5ebFfFpQTYrk0JC3Knrnu9o2sRTEh6IgwZ6BFw64wD4tEi9TfMTnoiG7JeAORZKMM6tzwBqQlbWxmxchCXclNk4GGufrHLdKhfYb+DHaTc4teKRm88fwLkh5U7O4gUW8Aza0yB7wD0pLPUxQsdeSYzniNE8EbzjpwhCbZ4YzmhgEd45TM2wPeEb1SIjijPcwKdJOTFTSoPYV7v0n22D2c0Rawkn3cMx3NElayt8mGPcRoAeMKFXUHYYVEoD8QbkkcQEeoqNsDKyTC42I0cQAdoaI7tqyQCF70PnEAHaHyPqEk2EqMJg6gI1R0m48VEuFaZzTXd1gcQMfReDY3rJAMzmjuuoZ9XGo+eiQr2dtkhRiO3kH41MyPd0SvlAhiuGnWgT2FtUl2RBhYKKht2z2slAzUHMuNVEoPIYVXEFCTEzcOhuf3lAw00UJrVrqSHpyV/HhiS4Ps8Q99qluUoC82/8dmjwJu0eNIKnQTMWzslJL1lKRWo7u7RXoY5eDjJJmuzRlvSPoV9w+/NZNg8qoqE0AakhblR35mU8PNo2kIk6SPTZdvj3eLPL7MD6zmHtl3YpKxaiKw9S2UsZzlA6p8vOX+QZkxmA++oEhtKfNz7DNQdiNQS0DstrLGLske3zEy29CqS4mUMoPWUUwSOqy8cLfrMrpf0rU9qgx64eVjZfExenCUbURokh3hA7ObDMrJQgemEent0BZqwKtkGEGHRtlMaIPsoUM3Q9kE9dfL17FnhoxN1XnzKAo+NvOfRDl56OCSX4kC1X6NcvIIe2UTi4KUCUCHd386dagun3uDLGoeyioBqmSgB9gIZT8d837sm61HoAoscucLegg5zRSHObignC/oIUzHoGJrZJeE8OfMENCViXy/bPcF6tMDKr0T5fxhND83WVfnA3oY9YVT2VyU84nBvr67LsoBOlgQ/qyLEFrR444GgD4BoCGjGWR2hKNXBNAlAB6ehwJREGgZAZoyKAw0dfgAkiDQNALoEMgKtI3WOvotj7aGXyljT0VwNa2jbaaJomyo1OP5prqBbiVo3RdjjAq4zwMtywYYvzl1PKkD2gLFUKihjGw5QCOo+DuzrWC3+LSqVOuuJGrkBdqWZrdyOYJFDKaReyWoyI2mQEu+qRIVoAjYp4JyCG7GVNfb8wQ2WXBwVZxbhewJVpL9prhGwiCyQHcoVL6AjsGeSClOGSVykqtyoLXP3WLb8zdgf6lICu0dAG2pAhUDIgd3Jc9FfCis5vwd5SbjWegU6epctBfOuvjhGcsoEDH8FZf3WYUGp3JpgyjdUAdCPYi+vsJtzzjWZ7wDIWGxx9jn7qZec1BaKFCP7jBoO/qXhmIi5Aa/kywuhtYNvUN8yxJQUNxIRtaDQxuE1Gwgj+brwUZhnm/MvdCBiY/3isLMzcH9PgBoA6Duv/ZIDWwVkbnY8pd3sVvZl5a5IaEbC+41+qzumuHcTf8Ld7airVA0QLVfouweHOVMZ6cs7jF/k9+4XcJqlqmB2qFoASk05PF0fFrqU78JyrE6WnjIaeOFdNbwD6FWQo5tslWQMYyw2SqKaz7hV5dJuzb7GHpKUONSi7+rQB+BShiiwsQqVGF+QnWxdhQc7rSQ4ylIh2ZXsWvVo5uhunHxUTFC9YE+s/zsKgh5ljmasyQgHFp3S2r4t52ZVPZABHRN7v0F1A7iJtrCFVpAA/qHkImrpRyHDmz9CuVXvQunLY8FgbpHKVsQoNzYgc0/ITcy19FTf0nazoO73LOud7ISY/edn39JCuBAtT7YlMaH4pTqg+r5X4F3hbOHfjofM6HFoWBhKPwEBZaleufPJqwhQKhEVmYlNw2mghZo4Dgo/EBpgEZAom853VilVzzDVbkHRwRPGD57lGsPPWyT0uHZzBFzhV9vkKE21Xp/6/6b1xm0IjzmT2jEqi5nQejxPTSi9580Cr6D3S+BauW/mcz50toslZJnUHEYsfCZg3vsNA41idU8mLA/ekjgdPVgR8d2ms2NqFQ2wjUzarzbzgESgUnG4Tr6XOLuo/uhekvkfbBayqDyB2QedKJvGpdCe9C/NFSCcY2eNnBATeME6BmmhXQqR1Hha66yN6EaQk5GTcXVMsxr2VSDogLVsIA19ibwqEFFwZumDbDsHuzt6Mzhq2gvUbAd/CuqM98aEcPjbzyUmKB6FH3Q3DKuQnsGlqHWSmYlVXxLs2jZsfWlctc4L/CFW/v/GdQJUFck05dU6moNFkqhOtdwyQ+V6/N5BdoIRQnmrYMya2I7OLtpoSwT0MXD3IhKha0v2+UvEd4FFOdLX0LtWoZRleFipRachomLAu2sx2miUhQdaM2hUiTJwS26G82ck/3LNi+Bd1CEtGpFD11Tym6mqARhakZlso0UD7hj4hS0ARUXQx7Fa5GOK+XgY9C+KLrUoxIj8oJWlTw9gSwYveEhpr5uXiDORpnjRGZLAROAaMYGtCWKgEouRFmG3oEZCDK32N/RXd8AkIVAJ1M7o+wSva8P2s2lxZMQhcGsglBmyC4ccaDdCHnDHm3KAO2BIoPWX0c5Duo4UaB9NkWZks0YDtc43R5FOTIsAx3KDq2yPHZ23fy9aO0LRHaJA+2HYgxoL+8KobUCgyOnxy4cr+LIDrORn6pQYF6YkpKSkpKSkpKSkpKSkpJPyvrNHtdq8JMdtv71uzqj8uYNUjz0e25Tf6A6zuXrNVOi9q8rjHsFL9HK4YNhH7WuUPGAMPMI4TezK31thJnSROchPVtJ7WOgMenE6EYTl151399z9r7RmG3iFXSurTB7cZm93xdGhh6LNj+KZdKRGGtMi1I7UNIL3X8t5EamHUANFD3a+2xwaw934PxdXnJt74LpPgCtGbLvRq1Btla7dTaE4fi+FkmGASkIn+DEKaYt3QCmueEqXSCrJXAbPYenIYrBJJZa3AUx3moDC3HKDlnGVZTylXWDqOhhgVsYvqQvHnXfnjnhunpD5nWcMWXNjodAqPA5hihEnONEoMaVLiYHjh0lu1TO5Dd2glaG5Vqm6AGIixCWx5ShGfMP/x0aA311A07XIYoCQREjbMEbQSCghuSBzFN/5mZDEeqRUONw0y3NEI6ZUoZRAntujgjmXeSvm7lhUraHABwKMafFue5j1mnbQyBgYg9IdQv6ogInSXzhcuBiAibrAYPukU0Bt4DQhcWapeQ/y2/28PmV3yWLuRO59LUFSYLdP8PnYuO66Dkkmx8/SYbjDP1XqjflCrxSmYW7i29tieduK97LHCdIfA+YLE4PwxSFX+YCtBNZYV1YJnkHc87FmmdznB8MRl22gJBsCUEAzJuSIS+jroasWH+9cXY+d4PekJHHIAgGjf0vkS8/mKZyNU9dnJ1vngIZuRX1MNCcjEedAVnE3IgFxvUkZw62AhoEmyJSgYchHr1QZ/BlRlSLC5yb7+QginHCz6CH7IJ6PWRjUC8qcG6foErhrmLHoR4FdDG9ewEO0DUGy1DtIC8hQRTr6uTLreehToGoGK/yvQynBtH9qEYDnT5ElcKdKVAtJvhzJaoU7h4dbzkNneSBqNeAIioWlMCwlJN0UQTQSe71hy4qFobop8ai7vlFEaBJdZVeyCdejC/7W/3UPoNoJerRQCd5IB7jBdVi4lP91Pjq50jUo4FO8kA8Yx6qxQTzznVQYyA5RHgKkUCna1ClQFSML9t0bpDEOl2+zCR5SCOpkepzWRzQPBYUVCmvQhQntDu6yMMwz16HPCbmyx6+tjIWdQpEMT5ubvzwPuoUiGJdNIUDJyefHX+wiHzGwmcXdco5EBXp8gpN7kRBci8GXxN1kzyEIlbj5CA7EBXphy1c3X1LnxBFO2ma7oUhvOcdnoVsfdSLDhbe2kEOQu3tXIaHBOZRAn2rpHzRJk8pL5PAdXL3pwzwTFhCUgKzOO0MN38X4JeQm4elKBGRSVFnSOFK5duzgtTKl6uMJ7pdhnpR8h5O0m9rwz8whxbPQeajit8NKcdC6AIhmYZ6cYKTVM6ShdzmtF/oj8q99iUoXPy3AL5Y/C/UixQWZdpBsUCYpAYXW1b/nmc2P353GuHQx0voAPi0tGh/vDjc9OI31DmDJeMlK+qmuMhsW/TWt2JTV1tJuuRnaGzoiUt5INqrUC9iguajL7qZmUy8b3Dkd8MEOqBe1LAUpQ40+p5OvwNaQO/xw0dQ+kFIWcR7LXpwskGX5iU73b7bX5fe2/T6+aZcCy58epbH3CKJwhKVUP6EIDv4r73IJVXs8IViSw7FaPDvSq34YrvwXO45nDKLv02JYodeLOCUoz5m6whLnZhW2TWLsKObCUFc0B0Jg2sNwuBECukTA74oYzFRLl5ux4mTfSGIg/CSQr0WcT/O3JfTLxrCdawoV4hDEP6NcU+er5QW/wOIEWFJGu91X4peMbfOigexqoJ6JMRNYS8Iah94ATz8eBREnPWwmNVFzCV4CWQABKGw/FgUJa1N7YIFU6UcBUEIQ9GcPA5BLYWb3yrroRZYIGfKZAhqLSy3OcXLN21FLJ3VwmmKyoN4JeQbCOyg4brwqqXZh2xXaEL8ztemZ0073MyYWPwaQS+0ipB4qNAsyobDxOsO2r7bEm3ICegWj/xFrVkf55UD9lk2N2LMHr8TVmJESbQYShMMpuK5x2SPz0clMaR9yxxQUyC5cFuk3NgBoyUJT5SUK6bvNzczzRUMlyDC6zBndDPrxdDkzDAMmBx8nce6NibSetm83KAmRN36Eb9cXvZIHyKXFOoG0CAwTVo2PIVxrYcWy1/2tDJooBqYcYtscgwEKnyLOCC+lrgWUU8KjGpLMjZNzLCCMkuiCSG3QUARV8n1EKhE+LAzmZlo8zPqyeDtyU/uxZNauix4pbUcDSpw+8eLr9EBkkymGhJyNQQa/BckPJcexbx5mh37YUxByYyrM22fKtd+0y5BB53eU3yND4DYJywx5jeH0no1uFyIVgle5iwDThSUGAOcUvHU7cFMFwwD36h9qFA4iKXI0qpfWNI4Qn4Szbnn8H2o5w63sgvBYidY5o+MxfmPtGXk50V0BGJ3nybrqer0pi/clMP9zq1uEjcVckhqmZklxXYop5kBzZQM+duW+VzO1+fjcp6PVkfZUTDlUg4AvXJEfCastucX4meWUTnj8CuYwsxhaOay7KonM5ldUPFw2n18kM+Saanbm/MIxNFQwmFkCX8ilE3G1l/TvEGDg24OTbMuXXt9RVZgKUkgA+LMQvHs6QAZx5/DKYRwo95wXsdY2Vw73qOqz8zWF/rTd0fgvrsOkHA8Q1zGdXvTH7zdRAAiBjf9zOZUVTCSL25AVNBVWwiVntzVjX8xHdwGAgHM2rqNvQwCxuYIWDTxe6fCJ/c+p/es+AIjfYt6HPgntAJ1jy+hIYsh8BDfY9Qlzjan0R/eXXjKo6uXUi9LcpoFsBSODoYolnB7NuVX5XZrqMZChBREPVswCskqDCXL6eegB8fKZDo5P7+9mqLiA52yO3P+XPMT6tnBpwa2JKaUumqUqH2g8F7BTahHAV2ibh+poDfph3o2iO1H1E38B00kxBmLrQGyFpIwuD9M1pcp/2LF2GTVwBCkC+q3vH+74p3L0m1riE1a6efWmYyG8Qu/fzrY1hoV/jn43I38Hyz6k3tRjw9/iEWO4YmoLj7xyEGuRAQdURFZo3128lfNh9RA6W6+GUmUiXWptLw3+aFVf23EwsyJx5vgB1U7Z6M/rrcnUQPLLrppPooG5rh9PCcpzuSfvzrAtxTRZ6ONP1HnYGbjZB9Vlqzo81ZwR4V6aBkXdCd3u1WxIGDgBLeJZJ+0NwRySMio2J/aQcuj0DIQ68JFIHzLbjTqqBqQE23/ABl5CAKHWNsph/MvkI0+90VdsUeHWKg+XTegquNfXBAf7gUQUDo1hTCE/cPmB5OWqq+ZJji3kI3vGF8U5FsNqJKy1etJsXYJuRl6AQ/AQjqeCYnLtNdvhMLMXrPDtu+G/qy+Zu5VVnf1B1d7v32CsK1lnQ3Qk3/Y/MNHxujSlQPdu7hhL9oLul/uzVxA3QXTz+X+7aDywA7TVoY/6DR+SH3NpltAxdCef94KvQOkkeGRFsT6FU0hTtFithr4GG0piSxtbX1OA9vnbIbfl0xz/iDQzUusi3q098/3Tc4pFu/W/6o03MD49MkOGpI7UI8Gj00rwqqOhEDOLxzEyWjvEpCA30bV1v9CZ4XyoA0IgZg9oh4J//IZBfUYo9wiNkoolt0UK+imMi/inNVzKw16iFJBF+It10MQa4I/vDV6UeKZ2xrCWjtzt1+hjQQ6xbBn57Zk3jJXJ0jIjhBExNuujxWFWPjHgNZTjg++hRlogr6RL1Dhd4Y6RfzoRLImlOAxvzS31QAGootDvQtOVRbNI8PSbjtEdRDl9u++ExV+qTFOnyGiOYdFdxWIO0uWEfw5GCWiryQPjaNcHcLKSg52FAWxDhH1643mhpXHeGyNcSJd5uK9VqfHPHpX5JilHP7oFjEK8e5oHuNXwwLPyBMltCyfjskRLF2EFeXfTwZ937Zznp6POk7MNivQyQGSYIQtNuq5gJEiLICeh5amo/qe7HuN/98iyCV24IGWCaneij6o/4WaQ9gTJUO4vSv7nlkhNllQt4N25vvAeCg96p3y/dOCY4K2JqdgjBDQWt38yxK+R/sD6jb42pfFyyH+Sgkn9MMbdMVLS735TVIxdTAcaYa6GbFehrqGluArGkHJnp5+e64WkCOx2PObYjx/fHwVNCK9UTex/KSABQ3GrH2klV+KWGrzU7GZMM5SMG92ZQMGDHSv4nOxCB6lzy0UN3Y//8Hu8q5LILAaTY2DXifB/AorMaRpIw58hBbRfzua/bLjhhJzrvZH1zlsz4mNNrYez/ZRv5TEtryAz+998al8oAEJsspIjudwNMFDG8+vE2XxJiYYnVyJugrfBJmBep4R9k+Ljz2tZx7dQ4RvGeoKR0Cb9S5KPPgjyl2o5w8eQrQB6n74mlWBHGn54QzRdZIGRyI9UJcRS1eo5xm+wZYfTwc/ItMU6hLfQbNOo+8GQrGOo9kfQ76OoyX/FVnb1mnwYiXKhs14fN1m9MF4qSkpKSkpKSkpKSkpKSkpKSkpKSkpKSkpKSkpKSkpKVGYNKrOd79u3eHJwa3Gze6XTRibWsiYc69acx03xSuZt+KiPd4JdVOv3ZTNPkT4R/lo8WjDApin1RBXvOyP/CQzufOD8TLw1xLqDj4cr9DKK+PQdt1hz84+T1czM2K6UhY7DS3RQjQ6PhDX9beIuckeRFGj/9noVNsZaI58aSVO3Kni5UURrTcqu6BnbcYX95DT9ca95/x931VLJzbi3sY+2tfOjFgS++OVSMz5ePnKPhUty8rKWrasmNT2MzUQpsPkN9G9dtJ2LF4H56DdRxrcTK/d6y7oBXtCVStRQyzsV2bx4a56RAn6Wvk8NLWPOiJnH+OhAwITxV8rgm+5hOfaKU784agrwzNyDvZP5B6GuJbhC500oDukQQz1Z9nPMTRDzSBiDTiUbABhGNN9McFrYcokEYGLEv2+PFsKf0VI/hIB5YkvceKUjrFSPl0qR+wujANiYoiINQ5jA2/gOiJ+sEMtS++Is6bIgRKjsZ2UuqIVZLUCkXiVkM2y+H6KYLqE9IWoNrAI5+wQNzydi0g6Tsg5ENUCeHQb55kiy3XBb9DfYSFERc8TOGHnAdO69j+qTqsul3w3uxOqGkgbQoGk6PHWFSxx3XaatabbjI7zhtS7bsK2R1rCEog8AuRISIqcQ3G6hBjnZke8pYSi+OQKQ5AiKeVU7ICCNYN4oDDdhd98w5CS5roboJURcdZIrXDN/AonS0hjSDymnwiVxvf6XcALz1wbNopwqqZcbksCVhNHaym1vIxCp0BSxIhQ6VrevaPVHEcKvnQhlLuhiBZKt2YRMWhZaHiJcV4kNQtz0VIgsiwZ84QVEyIqnLrY3R3yIA5EW87RkBf/b7f4sJVbVJcIO3+EfIjWnBcgJxdDUKSICdr5EIBfIZbpZfgpuwftgXdXg6BI4SFS1dOEVPCVGyyvyblqgLiPmVzA4wIFp06saUSWeJFowsWXeLjrXtdCTDn6exFAleHPsyuyqG0GQVHCU7goWevkFfAS5Tp2WO672v03BbHUjnpRUg/nOAF1F2nVgNw4FUKZMnl/0JcwzbspLIegCBExSuWsrN6V73ARZCq9pfmbf9rCQ+KORb0IEVlOUXe5B0KHPyHSuUQyYoLIRXxvUC9CjKGuJ0HoELi9I34EyL8gcYGQiAxvRQdO0H9D49HwCXkKEjN10MrBtxvCZ/K55+/LE+vhBH0xJkXATfIFJDamo51yV7sWwqK9ynkIyXNRZ3gb+wHps13eRkPlFUJWtC8bp+dLqyhu7jzPVBAixb4v0jIyVpLNUS82cHq+j+VryMiJEASxGm39Q/wD2RrUi4ypOD0pI5b3VkS7ROeisS+GsojrjnqR8T7OTk6RL7YAlScyC+IVvgcBA7IifdndDGf3LmRRT1ksMaLO4GYRxbnbjZPznTFfXEA6rVDE1fE0BJRtILNl+K5ZcHJdUWVAFj2ZKM9FLVJDOvAV86LcBeSTUDnb6ouQRf9aikDKqDMgSiowf6KMwcmdhjqFB6W/BfUIoIfpZUd/8woIz68km5tAFMcEha8yySswfKkZ1aKC34RRZUAU53z590JOyfQJZKgWFXwfE1UKvy97qUwjgD7y88zDkKFaVODU5HO7HSJjmm0b6COPw22XBqNeTODU5NPlJnmxLDm4WRqqlAUQmcKq1zQ4NfmC5k4iqEaD7++iyoAoKDdITYFTkxe0IYr3svlTt2zWAtEeqBYTODU5SRpE8V42X02RI6hDpG2JFgE4NXmFAKJ4L5tvhMjJTSBS9lqKApzaH6hSIIo3qeTL6nJ6X4g2RLWYwKm9hSoFoutQjQh6yU4TED2OajGBUzO87IgJ0DjodSqqFIhiJU8tEDg1+W4LUUxzWfSSLX4g8m+PFQc4tVWoUiCKd0vjSYXldHEQfYtqMYFTOwNVCkTxXvau6CRvjUK0FarFBE5NTi8FUbyXzXN3ywb0EH2KajGBU5NfYy9dFM4eeqfhEMnP4MUCTk0+Xe7lg2o0+CYIqpRzIYq8IldA2uDcUKWcCtEhqEcCfeRx+NoUqkXFFjg3KYvjcojuRz0S6CO/RkiK8mXzvSB5FxuiOCnHeQZA2TIPoqJ82dyTVXaKgSjO+b6GLvL+JkRhG+Q1A05Ofo0NIHoE9Qigh7zzw9embKkZaxacnPyyeQbTC1CPAHrIo3DLgA9QLy64RdJGqDsIhzDUw3kQHZqjToEozlelgHDTFXmrCiL5rQgG7ck/qFMgKtKXzU9PXlXYELKI+eUzm6C9nJGZT9Kj7poWGpye/KmInbzvIAhBhI9DnTILMtlcoJjg68OboE6BKOIKy75o7UvJzHORF2s8tfVxfrLTtTDGi5RRG219FwxfW4sz5ykowhgLdYrIsR2c7tyFz+HJlhBQ9oGsWL/a3j6ObHgn0uXfDIGdUWhJiBwmj98Vd0K9+OAOfxujTjkBsgguqovR0J86GbJi/fly4D81vq+hZyk+AhILH6IZIV9CQuFPcZNRL0Zwir5Pxvu4JzeDyAh/BlHWhXn4ltNRL0Z48D9fHChufOQQMKvmKfAdfDG2ICvSCbkLt1/xJXwW3j3O52i1t12FFg4TIWLwZbQi/mpnMtNwjv6TPBBCyhNG650uK6B28O+Y8ecbnzVm0YGTJNuhziiVHR0vOAxSiadk/33/8ij3kNHcfYsKnqneZ2Wc6Qmpy0trIXaZtvBGKBgzIXYxXz5FRyucpXKaG0Hq0vcNz7Vv0B7+uMatpUcvh+MhljcdihGcpm8rx+EGiAWdd39qn2fuqa9EpyDzFEdg/vU4APVihe8IvIE6KP0W8hCUmBziGrfGbykSBuI8NXtLJdKhkeomaMzhoY/lJabiBCdKHkWdE+Xzln1rGNwJvvjDQV6FM9UNLj6GxsbJ2kRM+MT673PFCH90MLh9eQFkTHyrh0A9A6oi//li4EzJu6hLLPgPdDovy/ZYHOjIM6gXM9z3z/gRnXmBMTRF9X7Q++Ab/LXhw860w7mSXyDw85Hk1wxuHGneuOZWAd1QL2740pLVeO7qL+bx8FjlDZbdYzOXFmtM10NQ3Aj/Rrsva+P51ze999K/brl9p4BMKvw3oVZc4w442xwNi0Rsg8cgKHb4705uK9t/YhQyCIJiZ2ucb7QtARsYw+8EX9TghHO6BYu5jR52rVgRy4HWwJbhiMU11GsBQ3HGuazyYgRyFeq1AbFignp8rsYAYXsKRYUIOu0LtxMHsXWGeu0A56wuskSmGfrXltiugJsoZfthieeZYl9N8iMiCpkCt4YjklT4l4+Lnzdw3rIRSnReRW99manI+QXnnd1uPHfYLvblcR2cuD9UQ0SE5c7tENQexOOnJVh3ENxuo3b9ejHEXak9BNER6wux7NCLBBGJ1xh9PIiL0LHWPHLKiP2RuOFSxHUS1WKzuBC2OqhH5Qd0IxdCULsYibMnl0IQDfFhZ/eTX/Pg9GN+3CLU5b0Q1Db2wvnH+/lFn+K1MQ1DTMzj3JuE4UMtiLxv4Vm8Al8YsBCEfQPqtRBhkRbdcX0tekSwzC1e+uM1GHJtWBBpGWpz4vkueA2kPgRhNEb7Ije/C+NxvIqo2QpFCpVY3rBFx3Z4FVGfKtC6Nt/QGNzdMVrYymPRuGgj2EblFryOaNufaEuIJZVv7QGvI1JgwLfQ1B/8uVayMV6JmjrDhMjgWfwGWaHglUS4S4kEf9mtMhcXImttqLkstx1fFz5sLxx92PPzeWjnCxBbexFTkJAYxOKbXbs2gGzMxqshvSAwcwhaaSm1aitz8HpIYOpxtInx2FIwVi7KBuEAJ3usqnCPQbL0MHSLB4bJA2Wb4cyyZiBGMiAcPLNFDhmdKNwtPXvswQzFqnr2rI+hEuYBDJ8LVi/P3N/SfD218dBWuWALwNIE+pzIixuonN8qe47GaAotoM6JyzFYouyAwXNDS2rKeATa3MjLyvoEDJ4jxitRbGjnRlsMlyQYOldMa8fiNztHouVsiYVYFcsVg3WD5MacGxgvQYZh5JxZjAE95BSIueFPKJkEGJh0sXAJ9IR8BImCeJpWPRq9fPJXo6kC94tdgroOD46QeAAHsSOHusY70FtDZpwEvfYg9hHk1rG5P409uhB/VM/GLCoQboniC5wgA31AujORLF9xBRLJz96BQAXqoG8uWiQeEhTDWh8mHoU+IKr0MWihNOFh1qwvSwQTQ90EWoRkUYyNcP9AXQNqX7xPFZGT1rfvK+a850Ggcg30QavIn6JNwjOWnzHs4air8Liz/tAjCtejjS9y922Q2d9R7h4ZtLAoMlajnhAYlOw4Rl/lb7bR+aOh9mer0xC2S5J1vXA0kANz+4A++BXxob9GPRG8m235vN/8ge7evK+B5K2q/yjLCE8IL4qYuAKs92lhtIu6mXvRKNHkWbtgUJcNN77Q9WNs9tk9MyADAXmTL9lP3LKl77GUkvhAOYKUB194fRV1M/3QKtEYehhSUFly4PTMj/VLRCZ9ELBYdqfPg5nfesTnT6mcYvqK8C9QyDI7WhGjS3R2CIMSGTV2CMW6VnaSmIkBRFtATfDYfFcuAY2WTGX5M6/NOcBbUt8KrRLMRnEfhgxDDl8sU+WLo+PCtnLldONgc3WP13vDvERTpWXPuHPdGc9BkhnE6g7J7RFjwFC6oL3CesJyR4Il4kDZhy+LtYP06Iff+4/2EjbIhGyAD1yYySQWtSPqqqaeNZ+xE9QKzum+hKKfhyrQEUh3vYpMn6E/oSxoUpppucgLPJZYGL2Iy+NL0FzBm3z6GS+lLfYzAD2BsF4ipNEGhq8L+epIse9CQbecwXCkuZhdajTo9ZMlbq0XzlKlD49fr6F4As+HOCJXo1uOjMBwJDN/pLCW8zHn7eXKhemBJoJzxPeSh18i5Hn1M1SeKITfSSRipiiysT2GO4hWGp/eTRgfMeZ127kna2bGt/BYfhDNro+Kh/Mwu+9VfKXARVkmOQjiaCSzUYzB+I9y2dqmIvoNOfmAJoGmBzyQPOO1X9jSphfiErAtzoZvC29WByV2lPCMjoTtuT0Wwl4WdcoHS4Y1aNC68/GhPizoStlyIWTqx/0VxJl3pXu2YvERa9ckaGM1Mi8YB5s0cOCv1u+zQMTJIeR4b+HjToiAF6eknfck5wts63Ak5BKjeZxNDfTJCQxFxqAeB3R1ptu+kDFiNZHi8yTx7m3fQ8Lxbxd13fBdZxpbl2fmdqnmjwivo08OiPCNqMdBeLsQ/1RbeK5SfA/wK8WdrQ0kHOGK4DDl4i6u6W7VFZBQdvz1D5RGM2VOjMdQ2XiZiitT3a6Qbtu+ALgOVu8BhOaYvGbJEZBQGk90xd1eoLdWt5zEVc4vyCdRjwN3zFU/ucyeUDhAIhAbQ9ovxJOOsM2r4xSb3bIrujrvxetnsorbMwHLhtUYKKs3EF0N2VTED7H+bvLtF0Msio3MbrLbiY+fB1zMOd+MCKGCeizQ1dCXx9AzzKi4F/MdqMdBpOZHPWswDPkM9Vigr+kkkF18V1RlXI0v60Jk0DdXP8k+GCa7h3f0Nb1s97HKtP7MrffU0JmRmIvO/mDCseEPt61Rjwc6Gy+5ps7dfIDJpYCvDnVAPRbxs/UY4ROAQOvgwQ+u8vi3tLqBzmQb1H1U9G5sfGbgS43ZGeCgc/ZxbihiGRZ1I77Jh4O3oiYi2aIeBZ6HOsvPa2/0VpYq4nEoBgk6h8/RxEN4Z4oYQ3Jyz2DED2aWL5snZs+yuwufMl2MugF50sgR9z/Uo/upit1N8iAkcUH3OG6lKsIUDXUDpfXQROY+KKVFhseieASUSutuCyCLywXob9ukjADfWOIve72N71WX73n6Jj/8NUqPyV+Yw576kILeavNZM3cffPDz01F24SkSc7jKMQDfRmTbdEP2a9zHrVLuZnoNEQpJXoDaOThWXtkjsnWaEtbdTF08ua866YOV4uHfFWk2E9ER17j74YlllkYb8E06cQNR4SdxNuqMNrsF+ILNF2FNKZEu0Sd5WlOH33c58LLl7J7Cv1hZR6HivyXYPPUFGP/PcOeJt0yYo6ic7HaRHJNdtnhkgWG+12fU5v4FgyhX6FApAQtn94t7Nxab0mgXG363esmtosbpPLcDT2xjQKwU8VsMp/8nG28kfUsymREHfPWztIjGiJAacDuLMehiEebmbLSMSQW687cNNSP7v+uCh37ZoqkjJDITtj3wpf2ef3Tn8buLDjKW/RWJaTuiaQDKDmlUxN6zWxVx+gwIu2Hx6OJ58Hp2elE5GD3tXK/uGxtB45hch94/uFUxa9SRTHB4PhVpYjYw3uI++Q39rCzSY30bGY728UBn7mgfYOku/XJ623nez1WzwyGKRKjLx/fesnIwcYM5MTZH5/Cv9vFoweA5MXwLO4eavuBG2vsz6+jUEQcIB11iwVc3X0MdVR05ZbT8cctG7XX2hzCEpmHhf59XbITIBgEuLFk8u4o1buxm8EeO5tIcgaFazopAA353mAdeNmYdkOm2QZjJ6AfnoCln2APOnGm70w+fYNyDziJQj/CvVep/rez5sW93UvVxEgaB5BpIXCbNNs/fOQNenIaWVpqq35XxeGApa9tsp//oxvhZxODCGh9ZhTqfO7IwMJucPpH738o5hF14UmXnnqxMRkt7nMUz8PtZ1ugeec3fzAh1dtRZcRHut9FN993om/nED6+HjmK6xZeXUK1o3JRZ1/0XdQnJc0pzDClbOa3DgYo128vnTl9gT1MguEWdyv1guA9UTerX/SdvI20DiCMj7INQF28DqpTpV/5hNBTdGU0dfjcaL41bvtMOPf46+PhnNl+474hom/Bnq0ZiEwJ2PhrTDRQGBJHh17h4jkE9yhKqt+NHSNcgU4eotNy0m/rQs4dvXq+BVrHN6tGNNER9DOqRfI58G8+57rouP1LEcRa02BNKG/wpKnye6+MOdBNXyeWoW10ifKCxyy0QZkPLTX9X7Vodzg/drHgCLWNe5fyu0Ah1YROHagj+3H7ZrgbuevFYjOBjTZSwyGgb00UKnTxfNdSjvnvtfHOTkyNE2FEp29Q8/SqJ9ibya+RO1CMhVjBRFy87spX6Eb4pTfwoE+erP1fgw4i5SngyFtUGJpCT0Uk8TvA9gFtRj4Bsb0XWQBgV/7dEUP0+9OGgRywjNXTxHPT4FqDVoUOnj89UNaaJnPmJbaKctT8EdInjPCLig6OeyfA5JarRkJ+64oVJMqbHaxArOu7F6BXjlOujRwvUPY+9Y1GPhogN5QBRNHwWwy7Vv+mmIEGIKXLwvEYGHaSs51lGeRopAgaJeU8U1HgIJTO2jW9NwU/5StRD6Y0O0if0FCThC11+xNeFTIAkCsItktHrwbsD07RbeBjdl6EeiikVJ0TefkdEmvGFyDhmIN4EvOuUa96EMDYYIiAJnR8099m98J808i8IoiKsGIP9uGTaogcZduj00KUHOxgkqu2PSM2IOsNbM4l+i3CJH5R4D3SIdxvU4EYwEQNH84DLfsfFvyElm0EQFfHkHinkJwXtbS43UREGB6iHgMZKVDfv7hr1u8JBN/It6mEI80vUswbDRPt6Ga9xB+FyJGwVIrIU/aK+DBEAGPWs4VEYI2ULfAyNVZNib80kZiq7o9GNRLs9ibtIzllLxe57lJkxf2TTUguKhcuxEFjxL8u3R7eIkb1EvmrUcwADacbbBuqgqeGoUBAyMmieOO5dQqZs+jlq8pZhtGdGNI5h1GWFbyb0Rz0A7hpieNnelkTXeq/YZqlXuA/Kk+u3c+vSU0WkCYswFUkgdIy6Qx8AGpIeqMtA5XLz2wZv656SJ9/N+5zpM1vz75XZ4I9BCVzj3gnbol0IhK2q6aMRV4JLSdevld/iJ71HD0r1wcLp3CHayhIak+gLCgHw21FoHlWeuUYOluEBpUT9h699WiBsTE3sgDGCEbEaslh+0/kOg4VeOmhmSeEipo3xibIcVdpM3P8SyvuG0cKstIWBiuX2A218wq0K5zfdXrLHy/q5yw9fr7DFEQB8t9K2RXow9HEJ3nIt63Oh6tQMTa4IH/7gXxG+JLEz6hrd0CAm5tgijEEdZtXXwlvsDmXOYLxgf64IP3S7Dwm1SiDa/g2MnTTqjntGMT8EicXm5cMHTn5ETifUTQy68I9eaGWh9R2KsZzNlL+DLair+XckG0RcCdSNoAn5D+o2rj2quc89VaZkW9pivPTW2F6E+OJpJJiZFyMG5WcRqznhNuz9TrjSbPTZEdG4B3UQhmw2+wwRRUoj3vpsINwE9WXUDXAzhIg7XSN2bMO9ODnl3NSFst2GzJzcutHLehioPg4NkmAqBg24yvmLiGzyUffz5/feUOIUxXZ9+h8bvma1FjZufTgMC7feiQNGJR+hrtEJDfISHVZHcdqn9O3/9zdJB2DmX6WlqGsI2wvU84xvS9Rh8lH7PJfD+rAN4ZWFugZ37ChQjlgcjVIyZe+bAhMT5AKOYY3lBnWBrnHhwkOWntpwdYL3bhVu121xHtkU6gJd4zxW7Z/5zizRAQeyvC5+jT+Gep7hKxIx12HjI5Z8jb8Qwt+hFQR5BkcrwLXF7+Unou6jB5QFusa5C8kbqOcRHj3ZGPuVf/PZlDr/8N3kU1HPJziU8TqGisxGPc/gaIkHWzaBQ5k2qYVrSLfRBQFHI7+jnk+EwwNeq4TJIXmdQ4/gB8W6zYF4sQLPTX6dBq9WsB/k6zh4tYJtIF/HwasVJJY2pLjBq/WAfN1G994SpqnrMnitMluNfnzdZsYw40LCgu/WbQo0605JSUlJSUlJSUlJSUlJSUlJSUlJSUlJSUlJSUlJSUlJSUlJSUlJSUlJSUlJSUlJSUlJSUlJSUlJSaGU1m3btm6M/B4ptY0uP+6246pdzljRvPW8eX0bNOg7b17r5ivO2GXVjrv9aEw2mVLrGHf39RfP+rZ+G2sMVpfqNvW/nXXxA5tkk4kopQhod/vBP5dUGnJf2qmsLJnz/nkjMEBKreCDPe+caY8KHErzmXfumXRk1ZQ8UFX20U8X4EPLiQt++qgskQwPKfmh9NqPx4p0erlz3diPr00n7cVIVd0THhQpw5Lj8QdPqJt+wYuLo0eeOAwfT+IMO3Hk0ThMSo1T99dj8bnkjWN/jZu/MSUfjOqxt5fCNm903btHAknnUnKh7rg/8GkE0rV1vcVTOq9acsvzT3RYeGH3XwYP/qX7hQs7PPH8LUtWdZ6yuF7rSJfLH+PSr3cNssMANVWNTuejPr5w1xF1+lnzlJb1qzNi1ws3/e1GdLAzb0C07HwpidOvA890ZGby4g0ffH5XNI7E2e88uOHiyehuplGHQoSKT/HTcrcVeP+NLP7qgCbNssjC0rJZkwO+WoxBjKzYLY/JXVIMzN5Uyveq0nzNLU3QLkua3LImYLl19KZpBNwC0jTguzf39dkVaJYDFbNfn4sBDVz3DJql5Jsmn+A912g+8dMEdymbfTrR+v1uNB+NUvLK7rYZeIt/Dkv457TlYf+IpJsK1WPTn+58M0kkLlLof01CialV3rymPw6h0mMlmqTkhRGW+2qj89rmbbuiqu15lme8GXXQJCUPfIN3WWHiZ9Dnjc8m4lAKf0KfkjgD8Bb7mdO9AL+eLbvPweH8XAV9SrLcxpNK+tj2SajzzpPb4pA+1twNdUqC3GmyHVy2UQEtC6oe6IvDypQcCnVKUgxahfdWputfBZ4Pz/4JR/axahDUKYmwcineWJmfoYxIaWlpz9sefeul8b99u//+3/62wUtv/fPlbEcIdUQm4OAyS9NnsAT5/Ay8rRLzYkzBu9zx9g2ffDEDPX3MWLNqyW4/PoeGEVjf8PR3xudQpuTM9Cl4UyVuhC6Esj51vqmPLoFc9GidCuuWt5/6+uxhynToUnJk6pZ4SyX+C10wPz74d+B2pZ+D/v7jR3QM5uoS9PDYcip0KTnxJt5PicXdobNTNXTXA9E6Fr/1Hho+wW9nuNXkabX2/xfX6t/NLRZBZ+ekZ41P5VEYfeI7GMTO6i3Q2GPxtdClZM1a7bOu3hkqG1WjTs3R3nTy26PCvt47a46hi9dClZIla/Xf66ZQ2Zi6agha5sCQZ8NWxpqipceW6aedE6MewhspWHY9VGbKBu6Phjmzf7vgb/f1y9BQ8FBqWp4DwzXz3v5PQ2VmxOHlaJgA1WcFu2o/rW103zgcqpTYtNweb6Kg4xiojAy6FM0slHQc3bn9XWP//dWsWV/9e+xd7VeMXhbirH9o4FRwTEc0E2yfmq9ky6d4Cz22g8bIx0ET8C1fO/XLga0GtZUWTsraDmrV5Lb/vmZ4jhKMDjQt3A6tPD6FJiUmv6rrm11HQmOii9VloNeAy68filZG2p73woBeaKzxYdBS6kh12j/jV2hS4qHtH78SsGnRwzYFP/HNZhFMiyuavWnaV6MsuxptDJS+gkaCbaFJicWVePsES6AwsPoetPFTPeebGL54ky6+yBxV6diAWfYStBFcCUVKDKaqTlfb2j+3hr+jjY+u5/aMOV+q6PmwcTY/2j7Lrqvefyanq+Sxaak+L4+2u/RsbbIgGXZuVvFQSr9ugwFklu0LtU4T1RFp/3RGHpfb1YeiDlDo/M+0OPpMJ2hj0+kZDCEzeSG0Oh3QhFN5OxQpEZmmemJcCoXOSLSQ+TaGNYJOu28xjMw+UOqoT/ctpkGREg11lrvKunR5mr65XP1RjmaIVVvrN4uSPaHUqFLn8a9AkRKJD9RH7EOg0Nhan0DfmoBz3+zdMZhHtXVr5BC04MxI4yPGQX2SOhByjUv0r2BCi1ivYjiPBt9BpaGaSdwDeUoEFikrJA2OgEKlj7ZT0jcxp4GFWsCNh2wPf0c0QAvQOvXWj44657Iup2ixkvq2gyYB1mqf9vvQaKhLK49CnhKO4m3f0Xb/3AgNBPM2gSYR7tY+7S+hUflO2dteCnlKKM/hLeNcDrlKmRqVtjrh1aud1PW00TZr4/vRgJMGLY/Kf/GOcWw/wx9DL0jcdfd1DCy4FwqV06Dn/AV5Sgil7fGOgTaQqzRWv3dbQZEg6o9x38ZQqCi2ci3S2NXRaIg3jPMw5Co7Qs9Z2geKBOmjupP8AYXKU9BzGkKeEszteL9ApcUeoDH0nPK8/E5+rt4+LF/tdspafrpAHo3z8X6BNyBWuQV6zizIE2YDDM95FXKVN6AH50OcEozyk/0DxCqKGVID269pjsxWnr/uglzlB+hBe4hTAjlMuSGeBLlCb6g54yFPnMtxAI5lNe8kqEHlYZCnBKGabA6EXOEvqDm/QJ443XEAzseQKwyEmhNoCJsCHsa7BZpbtiufhR4MyNuzTpWy/n4r5ApVipO+7RkiRUZ5tL0PYoXSetCDMG+/HHgfhwCLLZfVfdCDAPPIFME1eLfAURArNIGacxrkeWAHHIJjeRQ8CmpwDcQpQSjmmi9ArLAn1JxWkOeBLjgEZyPIFV6AGqQG5FFQHqksj8/HQM2JGA8lG1biEBxLopBZUINGEKcE0Q3vFtgLYoV/oAatIc4LypP2ARAr7AU16AZxShDK+qRl/0jZ8bJtliTCezgIsATvUZ4FyyFOCULZPzodYgVlsXQGxHlBcfo7EmKF06EGW0KcEsRYvFvgHIgVlN0SkqPxcBBVOARnfcgVzoEajIU4JYg98G6BXSBWUGfjeTTxOxqH4Fhm47tADfaAOCWIc/FugWEQK3wENecOyPPAFTgEx5ILRknzey7EKUEoFj5dzX5y/ZTtkjyuTu6MQ4Bqc1jalooFex5XedYhfsW7xbF8Z5W0AqsgzgNX4RDgIogVXoSak4ZgiEJZa7xdwLKE9iDUoDpvQb97Kg5Gd0Ku8BrUoHUeV3nWJRSzr2pzPBTV8HNTyBPnXhyA8yLkftoql0R9yFOCUe2NzKFE2youN5aJXO4oSyrzzI7fB0DNORXylGAGKVOduZArjIeaY7FoyRU1PteDkCucCDWo7gl5SgiKIdBkc4CNE6Dm/J6XX8k+anA188k0UdbP0w3OqDyJd4xjMf7/AmpOXnzgt8HgHEtikq2g5tijcqT4qXgZbxlYNg4KP3dAzbF7y2fP3ar/93pQ+BmnOPa9nEBW5/8vHIn3jGOx8fsbak7/wDiG2TBUjYBteZxXvc4seyUpBlYq4ab6mxet1kIt2AyKxFCsGm1LJSuV+MSj09xPMbgT7xrHErRUsRcg5OBEbUxLVW8ysjE0CmrwAMu6S4oR1ZzwZfNMW/1xT3iv6V0MKpho/ikuU0/DHp8vxYDqKmtZo5iuZcm/fBJUOTNJS/rSugtUCqdCz0mtiOOhxq1oYNlXuBp6j5OTupP/jAE9vodG4VdlLW+ZNapSihnVu8cWauMG6D1WWGOmxeGQFRjO4ymoVFRnsDTqQlw6KbYAJcdBoVCmZ9iqTuCH+3w9lt4si+XTcUqIxWFZR039/4sadO5n2+PMv9FAon20NItWjlO8hikWW7jMSvV2b3PgTrFTpb6Jt0ChUqU4WVFK5vSDNgsWXKSHQyX/tlk0qnt0P+fR9HHdRQ3t/Ls1IqhixMso2SrL55+zHzR81PYn5w/UuPb2UNkpAajLV/dDrmOKEE7IUQugjkFjxT0P9IBaRw2A9izkKfGYqsaXfx0KndtNuQRI5a23x0gRksnU3dzw++/wuD2+mmovU5kmjcgS9Zlmhf2rOkh/UnLZol3LSA/epS2bqF9STnt7tJYF6mFtT4gpYQxXfPyClqb6vIU2Gm1O2Tz057vJ8/druRY5fwXMuNSFvm5pfsasGaneyC3OGIynjSmAXCq//WxBpwrDV7y0YuWg179VD+NROcUW/ZqiBsqtDMoylxJMmZqsY03QnKvTq8q6pZ/mex8166Zvjrmwd6u2mUzbVr0vPOabnWfd+qGas8DHkD+DoiYuWINmnG9T++EcGKh+fD8F/gCvvCrw445L380CA2SW/oR2nAaWwE4p0eiB95HTNeQxdrkSHjEX/ghJft5BNVmyP6ClREIx0SW/h02Bxs3Utj2zofX+YWllhqtzhBOhSMmWdmqO6pmhy5EDv9YyAMSl78Oh6SeqZqItp2OCGSv+v/I23kuBxTTIx2UDFIexOAz50J6wzWNjtBa8DUVK9tRVnCjJZLOzlZ/Shu+cjPYxqf9OwyirMC+qd4+rYi3WpZjprWbGbhMxSVvbR5dOsT9BG6jccmyPiNbIzdT0rEN6Q5OSE2rKELI/FOGsfu6YxyJ+3iX/euK51egWjpoD2BZCKSUuX+ENFcRLBjL94t0nXhCwdjLjgvq37hZvQ1T19iFfQZGSKyv3xlvKKf8TmqhUtB1VZ/Drh15zhi/IWvXLXz38+iN1RrWN66zzp5pLYu/UKyAxeivhncmyHNy6qjqt7tlzdaccjFDvVkxfSfP0BztBvse7KtjyaGhqgKNVBzCbjXFKdhyPt1VwVRZmKMmwQH0WJMdDk5IMZXPxxgrykLEtGtrkbG6615UwH3TGWyuoob1j1YmPdE5ToyfOl3hvBZWJeH7E5RDtsd2WeTclB7RU9RteAk0BuWRDHFyQ+gTkBW2r+r4cHp+yo1RzSEgz8+WHM9UkqORgaArGwTiwoP6Z0KQkTMPFeIsFTaEpEE1xWMHiNJlu3piqboB17A5NQeiuGlIMSV0C8sgB6qJ0mzwGlVeZrW5rlltSw6Qkg5I9j5DDEw+HZWPo4Tik4H1oUvLE7nijBVvkIR++iT6a1//u0KTki8OUoPKEvARNnnkJhxMMSJMm551N1FkS2aYAj9ulagxT0nETqFLyyP/wbgsmF2CVfKRmnfw/aFLyimaTlv83XrvAUpuzAlGhZP4iZNlOUOWJnVTTFLJHGna4QLRdirdcsGVevTHaaaYpS9tClZJ3FtyFN10w5Tmo8sBzU3AQwV01Zibz/5HpWpyEixZBlTiLLsIhBP2nQ5VSEHbVfkWjew7ERPMHWLYrNCkF4rZ6eOsFX+UljGQnzUOh3m1QpRSMJ/DeCyrzspT2kmaG9AQ0KQXkH7z5HnlI//MKhvb4B5qUQlL6Nd5+QWXitgxNte/1TQU3hUphaEZpDRLOY3yaFo8nNTmrMa7BR+DxJDSJoCaTSxPx1SSjbsaHIBj9C1QJ8IuScIqQm0dBlVIDNP4QH4NgyHyocma+avBGBkyDKqVGaKUlexoWFH8yBkcoeSsIOSP186lhRmj32gmJJN/5bgKGE4z+HKqUGmOE5vG3YQKbIs9pbj7D0s+6CLhWC3lWP+egFys155N5BbVQT7ExVQuOc3KOW2CLtBhq9WrEZTRF5wrtu71ZTtbkQzfDMILWD0CVUuPsgM/EI5doCHqUB7I+VClFwOZaQpjfst7w7PQbhhD0jRuJKyWvaP6V5FhoYnMsBvBI44iHsODzO975pnA03R4fjMfpWRmAVugZ4bZvioMUgtt//LzWGbg9OiWREO+5UPIWziUWb5ny9RWUeVNsiSiLk9VZhn9OmI9xOjH4GF1rlp+jR8ytefQ0xzVC9X44n8jsp2dSrhG2wPnUAtbHKdc8MQ2VdCOkmqLWPOv11EKf1BjlD+OcIvGwGteh5ljcE+dU7GiuWDXJzjipCOyMLkVBAtn9C8FnsVI15JvKS3FaoVxaXOddK/JwN7sAp1ss/IQTC0FNv1fTXBAxE0qNoiaerXmsWe1l7kTj4iEgpXCxcJx6M9wjLg+io8RRUEVCM0sjp+PcAtDXzT7EcNH4G704EyCPA7pyKo/DuRUtZQ/hVDljoYhMqfq+xZ6sfIFuHqeHWPaX6p/1F1BFpAW6cS6EPA7qxupDxR7H/D84UU7ruNnDx6nJX5zPOqYTRrOJ6OixI1QWdkQzj4nxfjHV/LDtIY9FM3Vb/j9QFCk74TQFsZ5zHfpoN+HKH6CKgWZySm4I+JaU3YBGHi9DFZGyFejH2RqKeFyG3oI8Rw/JjX5q9vD6MXeehrdHR4/zQxOt6hymOQ+Qe6y3h9J70MTj5pghztQN1r0hj8tZ6M9Z0w+KYuQtnCSn6xgoolE6VLMUrQy5AdvQ4nCQYy2REPvo+9d3QRWVCjW5craZn35VM3JntXFXGD5Sf3Ri7NWVnn39w5tpdvnkwSwnKWeqCY8JOdB4l6k4EGqPmXFjiH+DjpybIY+PmlK49UdQFB119ZsnmXNo9+GLhgbdiSc1bvZ003vUSbxLSQ4pfrRIKGR7g4Xxyteg9LgIqsj0Ua1bcwi5ot6Rbi7W3L1X4gRV6rVYuvt/1zPZXzRZf6+zGr1nN3N4P9uHj0O+PkufpJFPNF+tM7eFSuLlmR8/DXU07kVHzn2QZ8MJGENwJRRFxq5he0aHP3Xa5+OmtXSarhzUcN9H71ensColkZe1JfoM+uUvwx3G5Srl055m+KxdrrryhEFRwx2rs9IeuQRJOxSDcMqLM1rPWJxeII+3aXTisRNbHKSFAjVwU/zv9S9frzkIvY287Hvs170CZQ5a83U0/1/N4GHDUO+RZvPfXN+8iamFeIu9KlUInsHJJUX5Xxg4KmduPV5z8tP4eRBaOzTTp+wqo8dvHT5bM9zRfrI4cvdZ9Osml92A4854Yc86+mzmRXVG/gwURcRyzSsjRz6O971u9dSUSKYH3daiQ+YR9YHJSPmUp1qhgw0tJZDD7y9C6fHB6w+eMeEg/wRlxoffaPd8dbjWy6EoGuquwqklxIxYQYk6TdUn1TZajHD7jIi+Ffva1EDr3u+0TKyUe8ZBvbJV79t2+80+Qdn2+3ZiweewtW8+pWWnWFVsM3I9TlVObBtrCeuQbnHsBB9na5lTtRj1AVSPfocdyEIfLSYbpddJzv1ut7mduz0ednat37upcSZTesX4Fddpni2UIovG1Soxs7OuUxp98nasGMPX6v4BwXT7yOkU6R4uMSAwruFwLU4yJY7p/EX6gpJgcdgPSWF5DKfF+aLdP3PjW+9tuf3FU89sWzfeYnj/+Na/fRcuNH6DAikZhgMaaamHn0+Qx3CUouAknJTAjWuyfPMlr10U4StU2ab+t2+tPz8bN1vNVkKmesUuWzxzSGYfLZpZR+0ePvmdzPyrL585IejKWRb4RFVHS9OZIM4vQrHwgRoi2EsVX9pyUttdd3sWcgPXvfbP00MntcwybuA1dmedL06/YmhduoKTySyEKAA3Wl5Z3aFXnK7bPnDKA3dby+5AszywrHhi96iBew03vLZP7/P+NRPlX/b+S095+PXlOUUSHqevfzMeP/yv9XwPumNCphQzfBvHo9b76/DHoVG4iE+xjTQ7Cs2S5yscosa5Xb2VngCFQmlVy4oxD491uHW3XSvKqrL8Ngv6mT3K7vuspfar/0jgBKJc25KsavmZ+a58cuAOc6lmvJEUlbfjEDXM0WqKygLF92xlWgBb+qp5Jt9ENRKT6GxetWj3qmmKfVfwzHjRKWhnZciAc44fecjwH1/S7TSCaHM0jlCz/IDT4fSFPN8YFq6G2RezF1nXUFbYc7ceZ7j9hzn5T7VNGSsrS36+c6F0Z2j1UomlbWXJy3+qh87COit5HsDJCAoUQ2q6dmeeF+gNN874KEzIz4Fzn8215faSsEx9q7VgyWTZyS9s88RHddDAo+VHd2o/RSVzbrqMPswsR11QBDF82qqWRL9BkW/U9dnKn6GwYlzRPQtKK8+q377QHpmzG+BCrKye3HeXt54MnIWO+Im3JtUN3tgZi7kOG0DK6Vzz6aVUK9wZBQrmOgrHE1w6CRorjdWlH4e5oW7vVaphHQkPTdxnzNvj525/8Dfb9Y5ikdzplye22v+1H7Z6YhPf7K+telPJ0hwvObRH2EL5o+2L43G+hjyQ85VvaWUk9wM1Y8G+kOcb7bl9IRQ1xGFqONfNoMg73+OAnIaQB9JnL7QGW4XeDShtlRW47yHPO9/igJwJNZvEWXUAaVCwPPVqkAR3rSyUbSTTgMnbQBhClWKDk4e8MxbUFfwadRG5TV11LthFn3kHR+REjUu3ndhYXnEHRGF8hg6cwO3ORLkeR+Q0qMGUYp1+xklwsjeYrmg8aNzRRsYNamz61o7BITk3Rw4wdNJvLYYNa3Fs5L2FBar9YgFj1qp2fT/nJVFdJLR5ata/KT0GrLiutZkhzdvsbbjfVryBY3K2jBFOqiKGV1IfNfL4iqhWpwmgPXPUmIvIRzgBQZZhH1tuZ9l28OisO4OqzhOkQV6iv5/dHMMLsoiulj1amM4achEpUxd/6mfhguew2mrmLdHxS7QWtD0DKkF1/UhT8jh019ffzyjs2ob6Jp+crd9EbvyFw3Mme4s/MWj5um0tWeFat73HngZDgz/aRXqYisakdrrPH6neE9oC0VB9lXEtrBPhF/W5ICtHlUW6772Fvmp+ttKnoJGZ13+3hL55bXfrb7IheyrXjdm4qAE2+yaYuSwqndSJYmcoXBo/sf3vhDw+YHyPnZaPs85o+hyAzpHYCL0EesAEStcttm6V3Q+KoKrV1luotvouSS5ZXnL9Fu85QzZoP/f0Wz7rPrjhYWaTYdpGZmzhZ+SaA8ivUDC2uw5ShwYdFz90/j5doJE5OmCT2cDkK9CPY3CtZpQvm3DTYLTJgsE3TVhmMXY4OLGZeNseHw6Rf8BKJg/ptfj3T06/+k31l6gVWggK7iIyUJ1A+6KNdYDQx4aPPbzD1BGeuX0f1a05HC2v6m5QGFjxwz+3PRIzltioJmNe/cFuzl9+PdrlSrt3/h0U6XrG3rtv8PXI2zb5fFw/eos6HmLO4wPdUQrGiTgwZ4W88DHKfAt0qO67rNdRmzKP2IYBhtI2qrU93caqraNM+eTW9c76+rZIqYAWffnK/vWGiN1GE9XJBL1ovFv7vlEmpeVd+7ZeNmzVrP8eo/oqnoiRCoTmAOIzOzsXQjsHzbwcJR/Vvfzo78kOOITHp1tCFcCMAXNv+PiyK95cb99NjhjYZfjsUaNmD+8y8IhN9l3vzSsu+/iGuQO0ZFE6B92LA+bE2lf3j/j0EURBXUQGqs8DN0Dh0h/SuEyc1sfP09obU6Jbo1REjalYWVJSXl5dXd216+TJXbs6hfLyEpthkMaSrJJQ+Bn13wnVCXzUzpeigDfy0t1xUM6WvjmFumwdkeuuRn+J7vpd+nmoJB45RUuImyxDTnkEh8qe3qdGcmCPxu6FewAciUMK3oTC5QVI4zHTuBzSRF852QcqmaF/5TElybxzc964nf1Ktnc7CyMxcN65pBuOyDkFCpfG8f2oCOn2BHqrnKCvm78KlY+2P/6mmjQnQpvffsx1lWbfQ7XMnjnT7RIMnmdK1WBS1VCAWAslLpVz7asgv2qeWtbL+sLXqhPN3VNS/Vo2MUhlyobfFBIOojzytMHHgYW5kR+DwwmUtQ51kzucFYHGVUf0QjOPi6HSGDRm55lRwrVEYPLMncdIMTmyYsxeeohkPzN7HHHbDq++9e4nN8addhyDY+SVw6bgaJyjoACfQ8z59oPvN2gxpK99Glr+AnrauET/bj+1MuDCXvj+gNaTc/iKlzdoffLxue53lPb59fiQB7rJHf1Pcx9c+M35h88YMq9BpPvTlEIYpL2Lg3HqKWsW6nrPdlTYcvgvpz1z+d6mJYsvwg0/PtfftY6/BW7sNp5+4Tdb2N0xA3h5/KNfjsh5Qla60Y7mMH4eM08S0V189BnU7u7jbr9yx7kD9Duaj3fRIY+oZlHkMihAmbLc0wtyl1HH/bR08eN9vSt32R/QBFLHdI9r9HTojsDg8246p/3iXsv6Bi2MOZT3XdZrcftzbjovhxV1QenKs7cKscaYd1A0C4gPdnp1q2fbNH+8tXFlL6nFWys91Zn4TCg4e0LO2QtyiUFrv3znj7PqOXeibT8NdIH1+ED97WA89HCk3et+w9dee8fIQ/ea9cJR++/y8oSDWFyn1gdNeHmX/Y96YdZeh46849q1w5OK/1t1xRZhkXlmfh9vTaTuoobLp/7v4tNVH4dueU4HVaruKvZVveIUF+VK870qNossc9pL6xR6f9lK3cbNpl92Q0iEsCHDrsx6Ka5KHXvH/L72heoah/rM20xpcDLkOVPHsiox7yptm7sG6HLaX7cOaBMagGnb1007vZF5EcNwqvPqItJWCx4PhUDdczQsgWbJai0WOafznjWWp7TuqOHLR86KlGa23o3PGKIix0Pda1yTT3s41QGEaLuHygy4OufX57H6Ewyqs+WSGsg5/dwDNz1745SgLVaJEzt8l6P1DGUaRhPk0UVECyLxXygE86HgJOu/+78B1o1yMmt6Am9mJOoO6tK76fknh0zwJa4bcGRSrq23Y0hB3rKIdFJv4j9rrhpqapWEz6WsyywMrNP1jM/QKp9Mu/2cFQfFWuy69bRmCVr/qpEz1+TLIG1jHIAzWXsqnaRMUfpDniDT/rD+dpM38u2Ys0BdUQrh94sOSHid6zt1d29jKBJmPXXR+SkoPM6DhnMo5Imy4EKrQVP15miTHyoC4rkZOGfhmRF9S2PwKAbnTF4PikRpq84520AhsT9UoDpfMTeP28y2jWqJypUILfXcMVb6X3V7eICGrFCXYU/Ox4xcMywz5DNSVnOrc3qqDKJqlOJWz+mVx4eRtyPvRd6/09C8eekcjWMIzoUiQXZVl28M2UxbQiV43I1hmhfavqI5e1H2z9uq0tb65ptKef+T52582bVxU0XFQ3URaZ18FhHVgOo9w6VbqrrRkr75tIyr2MS0rxUpuEoWLDIuz3usOPCWjzrV1YMrJk7VjTgiJ/EsIqdiYIFxXrAJlB7Lsk1eF42pe+i2Z/mJTlCh5sDlzGtx1eVvv7g2wdWjMM7GkQWnQpEQy9WfK0ucP20DlJTkbpcZRGmZGsuItM7LzMiYtOyuJft8XlZVWui9mEtxeE5lollEKtSVyi1tS0KazRIZkm/38f/iQIKL8nArfRNjC+a8M6ZhodbsVCrUYBCfJGDULtC8suyhFRdqU9aSfKch055+34ciOeqo67TlUNQMahA48g0UCdBO8slkbA+FidPQxmNenhe2ztRc8fQ8S7lRV0u/Hi+BY+Koy9LXxcqqEkSVGjO9OvCusZG+RZDPpQ6HJuoRu9oDDWeD7vZf4xky1dXMo5L6SdEcQF6HwsJGmnFk61zNr0PYB8cRhAeTjYMWeHl/KGqOL3EmgoRcRL5TbTt3h8LKl7rp9lSosqYq4NKt2kQzBkpyVtgQYwrq1dTMTGILnAtnxndQ5IaaNqtjuJ3bepqHVt+cAtj2fubAE+97d78vzXEP+t2Pg0gEhh6PxyR17kuKIfHtmWrIrqB5VGS0W+QBUAShRddxuOCezT8f1C92nIpJdS725oedt+rebIF/7a6su2EZs2tyO4ulmid5wmsYWaIlEjM5PMZEy8Wn2g6beVr3vqT0fW/vE+9cP0Z0usFLXlZGqh528wbre0H5pxlXthJ44ZyrMaTgVihqGjVmce55/arU67pvxGhn8wONsyZscfX8VoeFWH13avWNdT267/bvjGg2KdPyDpOnzLwEHVrXYkzBe0kuYORCM3WicnmuU4nP1Kcaq0+dyvIwz90Gv7ffZck+09Fc45Ebvghx0bvuoWeN/u2NEoxruUC9sVWfDU3NcxlOiVOeo11WY9W7ITQRh8fyeugTQpvtLzeQRXgdlyG+uE05sfKwVlomkqbQFQN/46Q4FzSGIjs0+7440UE/D98ATp6fE4lfWtrkgSt/W9P5d83s/92icUBxWISTEsyCIiu0DCDxguhPD8mKmDz1Hsahs2Nlsy6DF168wVir//yaSM5lBaMHTkuQg4tIYzUDyN4xH5x6Ro5Mmgxj9dRZUWny2bnbt5jSfIj5KQIMyUuU6+xpqc5ZJmR/Iz8dQ3C6xl/jPnTvPAcykmj+Ng4anaF1mnzU4eN7Do+WOr28INEO4nC2+ktpMBaLxkbqVe5lSo5O3dVrr/4qidA2oXHpNovpdtFz5L82bN5xXuBX2c9WRbBMqrANTo1TnaWb47RGGIAzLIcnzIEdHj7w7wtC/FmtdJ1z6SPOw1jTy+eom62CbjHziR9zFjpGZ2kBTY8ioz4uNcrO00h1ACFjoMiWlpOGzv7fVqbcuMEM+7Mfv8wqVh796kyIfXwb84PYI37MlWHFk7BcojfOTpCVi8jWqnHGEihyZvaYq/c66udoM/Xys+7VJ0WP/DnrZt8+QPu4+x7boWMMxiazrZQ46l57162hiINqnDEl0R+s0rKKTh+d+u8Q9/U3vp9kOWpZRc8eh6PVjIWxvWx418g0erX4fq9dqlQ7nYlQxEDNAKLH8U+EoYOvf8fCafuGPkc80uGd87pnkZrEGA/dzIyHPnnhpueLZ41UZyrOVBA7i8jd6Ci4B4p1gkhf7INm/nHSCTWXNC06WlTmu6GIyKRd0I+zZaQI7bUEzcxIonLLk29d8k+HqSOSCp+Uf1arT7a7xFvnU22xK/Mec6uAlL6MV+VRWVJe3XXN9oe+Xsz3ayunqebbWkSMINaqG1bnQLFOoH6xn3135x2+XH50bbhjW1DtsurFCEhWpm7sdc2Tr3GNUKXkTiqvoYyHCdJYfUxeFd1j+Eh0EdwOxTqB6qFkcVurVaghL8iRUITyq7p3UbB094WgTPmJKu8ORa1GTeQxxJdmLYC56MAZkqx/RQ2jxr6/BvLazWzV5G8uFCFo5pRRbIdrDRXKzLW8gKnP84mWvyFSbMkRapjr+nsdvw6husSNvROKWs5eah6SXhFWFluqDiAptZTtw3cM9okcEiiluKkM9ZRYqSbwTam1vBcWJux5NExZBwibWR+KdinrAGF21ZujXco6QNg3u0lIaLeU2sONVj86ztDoQdNTiprWEbbxDrtczeaUUgsZfX8055A+dU7b9NKUWsymp82uW0weiCkpKSkpKSkpKSkpKSkpKSkpKSkpKSkpKSkpKSkpKSkpKSkpKSkpKSkpKSkpKSkpKSkpKcFkMv8Hji1w+nSsdSMAAAAASUVORK5CYII=;fontColor=#FFFFFF;fontFamily=Verdana;fontSize=14;" parent="1" vertex="1">
          <mxGeometry x="500" y="90" width="64" height="80" as="geometry" />
        </mxCell>
        <mxCell id="31q_25wvS2AyfgsETEu2-15" value="Spatial AnaysesÂ to&#xa;Â reveal circumstances&#xa;and connections&#xa;betweenÂ spatial&#xa;data features" style="shape=image;verticalLabelPosition=bottom;labelBackgroundColor=none;verticalAlign=top;aspect=fixed;imageAspect=0;image=data:image/png,iVBORw0KGgoAAAANSUhEUgAAAWwAAAHGCAMAAAEQwXGVAAAAAXNSR0IArs4c6QAAAARnQU1BAACxjwv8YQUAAAMAUExURQAAAP7+/v////7+/v7+/v7+/v7+/v7+/v7+/v7+/v////7+/v7+/v7+/v7+/v7+/v7+/v7+/v7+/v7+/v////7+/v7+/v7+/v////7+/v////7+/v7+/v7+/v7+/v7+/v7+/v7+/v7+/v7+/v7+/v7+/v7+/v7+/v////7+/v7+/v7+/v7+/v7+/v7+/v7+/v7+/v////7+/v7+/v////7+/v7+/v7+/v7+/v7+/v7+/v7+/v7+/v7+/v7+/v////7+/v////7+/v7+/v////7+/v7+/v7+/v7+/v7+/v7+/v7+/v7+/v7+/v7+/v7+/v7+/v7+/v7+/v////7+/v7+/v////7+/v7+/v7+/v7+/v////7+/v7+/v7+/v7+/v7+/v7+/v////7+/v7+/v7+/v7+/v7+/v7+/v7+/v////7+/v7+/v7+/v////7+/v7+/v7+/v7+/v7+/v7+/v7+/v7+/v7+/v7+/v7+/v7+/v////7+/v7+/v7+/v7+/v////7+/v7+/v7+/v7+/v7+/v////7+/v////7+/v7+/v7+/v7+/v7+/v7+/v////7+/v7+/v////7+/v7+/v7+/v7+/v7+/v7+/v7+/v7+/v7+/v7+/v7+/v7+/v7+/v7+/v7+/v7+/v7+/v7+/v7+/v7+/v7+/v7+/v7+/v7+/v7+/v7+/v7+/v////7+/v7+/v7+/v7+/v7+/v7+/v7+/v7+/v7+/v7+/v7+/v////7+/v7+/v7+/v7+/v7+/v////7+/v7+/v7+/v7+/v////7+/v7+/v////7+/v7+/v7+/v7+/v////7+/v7+/v7+/v7+/v////7+/v7+/v7+/v7+/v7+/v7+/v7+/v7+/v7+/v7+/v////7+/v7+/v////7+/v7+/v7+/v////7+/v7+/v7+/v7+/v7+/v////7+/v7+/v7+/v7+/v7+/v7+/v////7+/v7+/v7+/v7+/v7+/v7+/v7+/v7+/v7+/v////7+/v7+/v7+/v7+/jE1phIAAAEAdFJOUwCvQBpbnAfdSInwyjV2t/hjpOWRItI9fg+/UCprrBftWJnaRYbHMnMEtB/1oeJNjs9gOnsMvCf9aKnqltdCgxTEVS9wAbEc8l2eCd9Kize5JPplzKbneFKT1D8RwSxtrhnvgFqb3EfJNHUGtiH3iGKjDuRPkNF9vilqqzwW7FeY/9mFxjFyA7NE9F8L4UyNHs45oHq7JvxnqBPpVJXWQYLDLm+wG/Fcnd5Jiss2dwi4I/lkpeZRktM+fxArbK3uWcCa20aHGMh0BbX2YaIzDeNOjyDQO3y9/mkV61aXKNhDqoTFcQKyHfNenzDgS4zNOHkKuiX7pxLoU5TVZoHCLW4vsBJYAAAACXBIWXMAAA7DAAATYAFWu3dtAABWUUlEQVR4Xu2dCbzVQ//HjyJkya70kF1Ekri2xOPSYs2astRDogVlK+KZLCl5ZL22x15kS9n+FCGVFFGhhGxXyd6iLA/+8535zPxm5je/7ZzfvS3u+1XnzPL9zZk753fmN8v3+53C8oVJHkM0HggTSImDxA6uUyhMTCdvyKSRZ4MQ4CSIs6W2SJI4W0A1+ETF7EvDFFhrNmhdRJZYpbMbQ7Bu/ILtkM+xxPFuQNlsS0Q4SeL0X8v8OwhyPOIEG3SaqDnHKJ2iXRAuFD4ePaUSQdHuA6ctFOFAvGVLthjhJqIsZBmFmHXnH6VCnFn0ghLZEJFceJYHZYjD2Kky8BVj0+h9isxkg/5Jl3KcdlfvKtBahNj+MkYY4v9mb4v3wWwAf5WS8uVYSib4JyDEgxuzjWSAXgr787e+7NBCYSbV49JDblhG7yRAfCyF6AUh8UYvf5GchPIFlM/qf04hISf+yXChcLaQXVOEJTJfiGxDL8fJq6R4GFb4afVC4TcKCRF2l3jV4u3xDuo9xF+koFFiEHY/h92xEOWa4jergCzKgLFmeBdvhA5+yAMhefWuM3SI3kdfIsMgyFOBFqxMBtiG4lWEFbp6jPVUAfmOjO6mPHtAX67E9PtQcX1PS5xQQbzVF++UJV9N+aBulTLdyBXiMqgxcin4cRpx+kgiCAlUtoEt/gACEpVtAHF6WcLmioAiUrzAdqcQSpSgdDOJA3FWaPMpJACrhXf5BrQ4BaySZPiUKHH2XkF1eYIvRZZVghJ/kUpX95aCspyqQ5wn8+/eyZrFo+xHNhtRgRan197saxEjurPR7Bq6wCrDEjcyRYDtZ6QIRKqReLkI9A7+jjWZ2QBCnOTvk/HCSParXaId2XDDDVljNsRIdL9I+1rK5b27kTg+WpxgZfQtIULUYVchRLjyFP+V1TVhRtQVn0wvolYRCCkb5PiYBZEaOAeiURCNB7IEUmIgqc789/FcGnFTJI00ApylsdIkaUrHl8260m2sZPa2KxWmsDW9YIjFWho1YYMxwgzgJb9pfropbf5WJIz906rr2rHSDfh/XoO3ZIyCCPHwFwjYcAlRac6enbQ0RRHkzG//OEIydeG0gfw1qDeNMxFEYfKXZZbBGxTwD+yrgpwyekFknEgt8AFLcKUOqkT5zl/q8RBRa4wh/Q3ejcvUC/iHIf0s3qXML4XCPAoGFxfO0MHa7FCEGR+R0f1BQfnC2LIbHryU3kcICZ7G/9cOJAqFI/TThcQkb1CU4OlmeYXCluU0fBV5vMcnzpYR4hB60dJjGY11eQRDFxc2kt8NWrowXbzWEa+CJXiXyKLofyBhhM1Uzv1sTC2Zwg4Sb4QhLYvT6MY0itFB/s7mISzROVp6hPojL6UknSxQUg1ZHxmwiqb+TYQlbF2d5wbYh/JNvEp4WGU67wU5LO25SyA+hr4thBFQ8XEyJ8gngl+xTB7N7hAxQkjLIAh+xXyOxV/NojzSomyqkPhM0QFrKIeyNZb0FBUAlEPZGraDeOWJn8xmrJNZEV9NRL1JSPY3IpFQZdvX67Lpn5mF4FBLWpRdn82Q0iJNwraVb+IVyLK53Iskyp9LAULOKiCQZnwmKYIaMfXw1VsmlrP5IqLgSfSnI0ZAWs6CrSweZrxL9UkXWC/x9iatnxAtWJNCYQBJWiXQ73GqkSYDhoglTWXzhCCNh7pbEmZ4PxpGEkgoFK7BCgAYQzNvIAR50fNYJ6RwzOLcGMXPttOiIxwaEJuDRncI2RtyAbJKEUDGABk+IFFDCr65b+eNxo07Yf0rjUdZDhyNr8JgL2SVCEoLgewSOFmU8z/+kDf4SSTSYldJUCEIWkSlp4Gxxng3F3gDeO9fQtlMrLzSe3gMM00kI2IwXaQnU/iZRpU80Ly9iC+47JN58z65rK2IsIH8Pwo0kHnJiK/sNx4QbfLgjTKVsYt2ori/TVjEMNxGFPOleM/Q3swzIQjDLxX3HX3EHyLFYn1KR9ggXb0VvIipVM7wO0bJhJ7PdKH4j/y/TDDJXDa1SeenqEDJJbV5QrhN+FgeIEHTqQIZ/EeIJAGPp23vPSmlPJQsyjRogXTkWItXRKVIRkRzMSvDEmOAEGRdxogIrcNzRJjDg5v1ooRxH3Ve2rv30s5370ex9iP5C0QC/hVKJFkrSUw5tpBhHhJtsueaSyiVsYoR/6K4/x68xVM0gmPler5M4zc3QthZMJlM6QgrXqc0tTYtoGgQYmyYDotAZ5HIrgy+gcIQrHGo6Sdg7Fp6+zOYZF3LhWRIvpsfJEPBDWQjczUyYcdfftFFGGXgHftOx5lX70xSJj2QYcA+EK/iRZco/xQK0TTG/FCEFO2WDhu2tB0iIdil9FpPBIOyaXWBELeaLpAH7QdZAvxKMfSmckSCKMKtn+AzXzpjIxHyoH5xjB0g3vlsOaJ+ns98kc2qkH+5nxPoGusyO6YYEE5l7LhC4WWfsAE2N8E3vJRdEQ7gic6yJeMTH0672ML5zxYhia/i4bQgHlM4YxezwQhLfAU5X8JRpgRjHRFyIKH3zc1KT9/wDI+vg7DgHju/iX9IRcUQlyMuuMNO6E0CCAsorpOsiMWwYcMY+2HYMLFcrSHhfyAsYwgaBGXLdy9MTQUNqDhalFNhBE1Slq2fxZPFBrBCfnuIeBDZSWXreuMihSfJRFxSbNn8KgS8qGvkuxejTc5RV5jFPi9STMacywnKpph8OoUwxz5UlnxHhLH1KW6zwMygDtI7jCPM8eBGXIy/oU500Wci5LBUVVrC2CYIuVhjNl4a7wBUF8NYP/Eexixc1seLdX9TVfkL/ezjp0aMrS4DQvkgoknssqlwPpHggaE89J1M89KeFlkKhXeo6MiKh8rWkl/wYGjoJ9kVcoxtIK9BuoM9Rm7F5bBWTtDzGMGAC3kijbJUmd/zdxonh7HrHaoEDSLXQ5igQdTGCCtJ9xqNvgflrHztsBypw9wmQpvzkNq5MOHJxh8bYJTNkW8yweB6nngl/x9+kgqoj0PQgsoCIjJfBELU4cnPIBxGXh3iKkqXUPX2JDnrMaR5l+dshrDDWjxra4R9UOlyCOj/Awk+d7VHBYq4izg6k+SKIc3GK0Szg+trqGGlZ+ojP4wbN67Zgqfl+ltujNkBPxbJ4xORXjofjkaZARXHIK9EGqA8m2DjsQTuQmEuc5BfAnzSJ7h0lFy6qd9T7p0w9pWIl4IsR5arEPuPpfeCj1IhDREJWEzJZyFSLFSGbzgkFsMQzgyml5FFlFI2k0qMVVO2fBpSEb7hmbmdnBlcS2/se5lksKdIRyQzrAO/eLIsm7EJQlEYLPwfUhE3QEYS35PgLhSiESNj46/bcd68oTteN17EHqEXFBig1EGS2F0tYPEixGq3wa26zWxEZgpu0KJ01d7HX47YuM/+qYqhdwueBs2gWNh0GvX7iyC8GVHCDuxVIegtgvBmRAk7cDFawPEWQXgzooQdmNRjpiLYnSLFRCwVFV/2BfJN8OxYEVGMOlwmIxrgS4uGinicXmYeK7vD8qnNKPotvYgEE19aNKKIO+nVor/McPGlRYMiRu5BAXAsrSVTQEhoBotMDuImb8/ptaReF7kToDFl67So36IOwp6yKUWAeABtyknEEraCEhC0CWc8yVjLli3vDcmTalqAZbmQumyeJF7krFezPUmaIF0WwZ5AJOA2kY6I4n2eEto70rulwbYFcmTZjLUxn8eVvyAVcQ1PYcz+KRwmJeUkuKnsWOeKiCz7vyJl1x0/HNNizIdXi56biSERZDQvMpiPBAjhbxEpFNYT8f4yQsFCYVuRFDBeZTjwtAcQlJAUuwYRgUgJgvTedx3VfzdaR1xOQXq3ONBNI6k1EAaU9L4OiYCLP4P9iYCEhGAP0v0m7K3S6oa8kjS1fSsl1J+YBiqCluMYOxBhgS6mIDQZZZBCu+gQf97byO1Ld3JCiyWcQLfqcx4jAxe1YCkLD5bXRRpb9rqISLZztjgBT6n7GG39Im5Wm7GmVKHDEAmSwTpnvjj1xTPXQSxU9MdywaSwLMjRUh3FBhx/oIiYfFoSW5GEB3fZVBfJtEEWl5I/mnoyT4nw9BNliIJh3IFzbTaF3n75JShiGBeTIbwbZSOk7JZMwj3MEnX5c7qI/bmgDD2lMsWbVXahcCd95Yorw89mdd05ZB+iLiS1GBmSG+vXsndklAqRIUX5tP679J8Wte8opYXNxA+4cE5QBGO93ud3l465ZccjpcULmYcQ9wRFyDHH74hRGMFUkPRPP4lL1IXUjjJUKJC6itjrI7xlh1M0H7Et6RoK6gt9RRC+sqNkBTpvPjseIS7/FIIWPF0oMBuM4mkRO4Cc9ij87aACXN5XmY09yTzFKwv4FXuPXHpj8JVFle1JHsF/eXVZa8Q80DWcYHWdjyosPUlAQggC+QQP97cGQkfDHEKES+FQ0zrNzdgt/LWp96/UXI134C07nHgBEgwbTQ/OVX14MVshrAmXreNuhonnqpD40zxJmBpqWis7gEIz9XT1wC+TqrcKT9mhJPXIIGBN64Exaz+ccysv6EWEQahsxj5CqFBYN1QVBc/YnNVFRBIqiZ61/0FYcKQlwFgHhGzEIyNUqeQEBCROVCGSf7L3RV7gRZkGfbQHYl29hO3Ws6cyIqjds+ck79ep97URlzgJFLUetZSgJayIiczgIC4hbSwo5hChfEqwbNu9ZY8ktQI2bJizTGRJkzWN9U0KJiqVp7hNTt+HUtlaK4UiCBrU1vUOf67Gd6VQ7USYOjNhvm1TW9e7qXz34a2VUbYRNOmctd58fGggknZCJEy2ssl8zECkIewhW9nymgCedBmCHrK1t6sFx5MQ8pGt3s3lRZplhZ4I+ch4n/CwVGbjaXS5eDlXpLhMK6JsGUGxk3SCxTnnnnvur7pNLuWxPWXYxbxaFXUEdf0U4djPMoHM2NuMyLCLmXEoIuJVXOO9ysqwIg5WBo8cLN4QYWwRhRzU+EHB2F8IObhlU8womwIhGPsVIeLBCClv2acxsXxLs93AsMXCKi2yaF/Z/GV7ivWKvMoclAxnbC0EXayyW6qy2QkU1bOGEIYCLkkj6GLn8Njj/OXEaHnJMTqfik5dNtuYdRaLAz5lEI36BW9DV7AITVaegxAhJEUCf7NWBl1wGWN8Iur6EFCgKLCIipYJs3lAL1uGuENu+JSJJrSKMHAySHB0EPZohRFyMeYwqQkaobDCcTLomu4Ii6t8O3OkpPM1GYRJEw0eO1xmOPAMhAQ8asSv4zHbwpPDKysWMEazMqmMYl9j4KS7mjs86pg/0NaR9IugRPl7qrJJ78ZqBtp3Mla5aOii7p8j2b7inawNwntsHF321boStk8UWm3V09/7eCRYPNwc7zzRW3GdzAOk+OyR4ykniwC1tK+QiGSrbHaZX46mKSOlSYHyKGPRj2f4zL10UYw1YWzzAi3KyQSDT3ni7/y/947kUBaCJjx1QwHPfZPfFPQTbok8A7qaLUAkBGUiaCIukog/jgZAPmWmm4VABH/wTE//ICxkJDwWhEKQgqO6MULwPNVTmIjCBHxQzV9EyAvPCJbcbaIvEjBGX7cczSLJhfY4EHQg4xIEffBcuRjI3w3HWxY0OzIf8RpalJO/AS8890gVsH2RGDTiecMRtqCLxNVeroUXK1F2UcjLvahuW1ueZQXXx0G/nqLA9bFEWdEkcAour6GGGmqofsrLKyXlUVtQKxKNF+5h6Jwb3Ph7i5wVS/Niqb3a5uPmO1ewtj8CFUvml4gRbfXz4RRUKR1LQhs1ywXhzNNicJ+Tvzj/e2LB/Zu+AwUEg8uX/71iKWPNvzXYu7G5YP3hkBFIb0TLEdSD8+/oRQ3JQNqABUhaXohFV05rWzk6it6qzdN4UKhCUIsLEU2GrLwIRKuLQYfSHrIGlfD6TvBCzgMIRKsL+sjHlZmsrrajgRjDZrgC0epCfuh8tYgho4w1kRqqSXRUSmzLp9ocqSaJCLHbSyIlmvOgYCtAWiyL984N/ok3tOshPpnch4kAD+J9yeG7ehaTCrUWHC4dzDDWFe/IiYGWGfPkBl7mKyI0HN4v+E9yGGkFBiyZQqsYw6fAmQd4dV6GnyQEc4OqTXssBrInGfO+vnVDDD5wqXikL99qy2F1E6n1ZXeAjUcO+fSaNa7qRuzQ9o3Xh4ycbIxBMlb7qvJ84EVNry/1H9ry2oiAdL+UjqW4AtEYhFheT1NRGKdMOpxHbCWp9jLE9F/RIXgCxVFJnksESIhBiOVZ7X8jzBFlSw4J+9KzaXEeJAmkxSDEcjHgIyYYrn50tZVV0MyDO/umugO3atoNEkoSOTEIMdMeP0dE2dST3Ke8zUieveiPa88/9JSZ5MghYE6HzD0JIjkjylYd4GO/hY1AFUsO+K+QUbMhEYlg3kmEEJtLof9E6c+Fmdj36pueeGBx0gWibLvfPrXN7l+dMnPNPnNaX77RCN7oG+8h9v5BitZWnY0BcuK4aQ3aYTB4/K9WyAoDkfTj7TQdIEQCGiEjkhch6PKbb4TEQXa0qq/LEFyBqB8SeFQGSTl9uAxGQdqf0VwCp6oWyGM/+N1nuLSgTVEBEiIgCfEIIxOZ+FpLI5o46kHZxwA5RAP4cotkkOlFE2lRkMhm0p9IjO5zoXAsCQbc+v0ZWwx69OBr2tqLN0I9xQTpcLXCuhzdz/Abq5n2dA/S6CeUJHIiIZl1SSdAuHKJojWJgVdga6T4U9lyE1ciESB1u8Kf5EQqoF7dORsd3me/urZ16lNnpx+TQC6u1m9DhvMvr8r4bWKbUmD/qpEoh1INN4fRjYdxE6QlUsahlLBNiYB2iyW/ICXMQuHIkLD8lCPN7GeGbHXMj20O3HXnqw6Y1GPDz69rvniiORyojysQjYHGyL4ddAXp8AsMV4Qe+kPKUg9AUoRCkQc1p0Q0ls3C1voBH6EgqcimWK9Lr/ajp2xq/cCUxaZRSa0vWtf5QXhpoRUZtE1FBCOE739iyc9IckC2ZQcR3KOzzG6N/CcS0s5MoGbinHq3I83PebAIJ+K7YvugHb/2B7JMUw9pJjnn19PFu/mrUAM6QzPK2fuYtaXynBnw9meWdzbG3kSGl3Ix22+P5vpSbLuHNtGPolSOoXIpNv9hy3YRD5q3PGURiArU7ZoW++wBFzJ3svXMxAkbCCsoiWP+puhhhqCcoiNIKLM3e3Blj7XjGZ6wlUAyjvkMPb8dBRSS4pjmnRRHUBoam66f8HW7PtAGHpemzZfM1Bp+UZBlrlbMFhd9Xyjsxd+sDYgzRI79HdDSOYJSN0kaYEpIF5JA1GTGzlFeV4i73sSBX/FwSX0T9WRtFy8W5pU8dTeRBODtRln5CEi7TCmYCs1JhCWU4KaZtDviyKNnbvvts3OGTxk+59lvt5351JFHRHpTDcOL1ppKO+hPoa8SQYHwA+AqeItGIxvsypco5DFrjql2ifCitclw8CkjnE/EI9vRrROODhTOowqpET4SS4YXrc4EWRhoj9EnIiiQGrxaUlGpXSU59li62ojFUPt322g+HeTFYIj6FOUZfTsetpTi1a4zogYLz2rzy48IG6hTQBCNho5CDPu2TAaF38mRCXRwYOgDKYUTMVUMg7FCjB6fhLQrg3N4MnAvXXcvIoL3KcVZQsDGhO+x74N8thAeq08LGnUlqBJGUYsuu1wPhaRXH2spjKNm0i8gngAeKgkDVfIMyU4sHExv2T2IlWNx/67fBtDBOJyPkWOg1BMQjacjhKOtHQhhNUjPXXEEbpyhagRLLa9B3t1D0TKcSP1iE8jGTkuFa2JYOYinlfLFnYkhP+57MpvS7b/HRA1hTqGiOUk7/Rx5hkWsibJ8FATGKzRTty1RU9OWVcStdomapPlVvgfJCHegEhofH40wcSSPp5+zGQjbFKtLsVE2bt0QjwRycT8D0dOchIiEPIgzeAnJwPN0GWM3IepBTawuk9EolHpvzODzQcp3dxXEwN/yTZKCc+kiIuZ4GUjE9yb7QuhixD1sSvkIm1ByV4TTQc5068nRffQQQThKIRD3oeal0WZNYjLnX9MV/pISpjUm9GAUH0T1Dq88Kh6jYjnjEQ/TGBLRf5noSaNc7AqPQKmH3eS8G50s1Vs5YgmjlIEi7wDkh90WKG6iXM/YC4gnT3NEEhD74hs8LSALqpgfNOUSMFh1UZsyluqOibnuYJsovYVU4jWkxRL2PBb9FWsTA+9uzUHInIl4GAhILF+jSJMgLR71VNPEdM2ieyUQNyGLKMI+GMFicg/wAZeDHbCEx49D3kNZ5kTiEy1f3l60ozHEA8RQkkA8FrIjsu40Ho8xkY5GfGJytQs/CEE+YERcoXRd9AEIsVR7tbVhl2O2idRIF/s2VG33JokxpI9GfGaaauvzbNXZ0gKkOSONSGjekV9rhzevA09/YZ6GDAcpmajCmyTeVekRkMq8nCqowtYWqdEcJaXUbZONKmxtc9fOx1ASCjbIMpFftcP6JCKZsWX3aOjpVI+8jQnqGzajEEgDnU5UlT2J2tBAlEOP8MbCzFlQR3Xkmc6NIld7bmvHHdkRifjkcGuroai4GwQ8Ql4TLcVEIo3xhtqcFritrYnbHXURF3iUjkS6MT+le0S0q54QSVKZnEBWYn07SJMgLQ1C3vO4UUMNREnuRhmSJ6IAmZQIjefjJl5CJQPhVJC89ykpMhibJGO0FylDhcLxModASjJCFyLyV0CPiSy3SEy15aogaka3ejC+lz5ZOYinYQ2S9ytXCV1YcTRdeugSv2aayGFsOoVJQap9MB6mg784iKXjCbrCt2ohfQtl6Y844hqvHuCbIktUTrhd4KyvF8PnDm6U3sADUAmGTiYQO0CZF7vFNX71RZElXPXQgrRY5mCsX8ZmMSF1GvdsG70TFL9O6yIu8d3bhYJSExeLYLsWCk2xnxuz9JbA/XS51WWKAiVISYe4wq91qXREdgmcH9BSI2dSsUdmCI9kwYxCrBwpGyGvb4QoxBX+m0Q1BX234odJ1CH3URypzJ8ZsU+sdDTOosgDemyf5fYTF/hvEnWEKIEUwWW0f8mJ1xDx8J1wwcmRrqzE6gkFRBpzjn+PR1wQpZorMglx7qrB7TJ5Wwy80/Adlm633I2/kPoe/fHyByoWlzgpt4gIIR/R2tIvNYG4QXdS1OTsnOqrfZRGrJw36UchRjVixUgtClKYQDQFQjyq2qq8toja9D1A5no9/RhsB3uhU9TqqFrq1/PmFkjw+UHzI8Qjq01OqQlEQ5BHMM4yPbsMUQv380xzRVduHBp6X2rzK8UWkURI2z3JC4HfWum0Km4G0h1qxgf4dppuovPdOO+EVnP3YxXW3SXlYvy7Oghpq9o0WNPn8GKNOHbH6UPSmeIypyMO3sbTabB0rB6P2tPcA/EkhLB1k4gUNk4ujqlHToJZ8TFSakobxAuLoZ1ekabOhFq7QDQJIeupNmNLrjBiCcrdhcJAUlrgzJ9WKAxVqozRK/0h1O0YvWVhIWRD1Z4s13d4etRBCh4GWgoyjl5PIuSgjfDpSoeBsAPPOF+GVN8Uq1SouVN9158iIQO4Mt1tAlkHkXW1CO4uXlPfdIUNUPPMRvbkVpuwlkajEEfhh+AZLWRHMEn9Ycrvfwr2kvqAR7t6Hgko3dl0/ifeu92GrsSpI2XkVFwdpSCl07GQ3H1zpmZygSGviTglMwlczNhdOJEC0ej9OS9XYLHNWoSKR55YkvnHLMG1gXmcWlg9LCO9SY2T88EuSEhEymf7YhXiQnPzHs+SaiRCmTyemQMcxQEUVo3gg0tDqehWH/jgEpmL0qoL4XQ3B1pscFr1UdQ6fQ011FBDDTXUUEM2tKvLlcPXJTHx9Wsu3PeUAeME4++/9MJz/mPapK2I1BnbweszY9aZb49cYZv9u88wmfexbLWUKmLVS7t746wOBcObpvczUk2ciC2QeLqmWo6qNj7UlnNJHLBiuBUVHAxjpDQM1+vjyxvH2UYSSf73qolkvyYOzrG6ywdhKGhRcXnXHxZNJ++zN/R4fPwc27ceYZ5su7xwnO133fymea1aaJXpyiGt5q37pKNOKw5kWb5cgqoI5u4eOj9G0v/c/4OI4A8kLz9QEWLu2BgLlZF7yz1CCRKXG3RsieSAxId308BUIvacpmpA7oVwXk50c1AoTFb2XalteKsKVAOHjyQyAeLL+S5RO8jp9gY5Sheuqqz700GOKQhEU4ALitLozg31rEE0BbjgDUSrizUeMe0Xi672OYhWE1vwjzS0A1aWaq9GnxkYnq8s1d5ZfOjFaj6rqv1q2gmu0DrmLJdqa/MtKFKlVnLW5ifrIaGaQLXZAOk6RFebVVj2CH52CexhllO12TvCLDyoNr9REhR5doELF8FyqDZcw1HzqntbctXr0DwI07llAwhJUt3b8FSeA6Q1SIeHc5ac51absUb/N9sz4j7s9k0dZ6Vpqt0w3uotM4XCKOlK8h/amORDY/5SsdfF9x7156h5nFF/HnXvxXsZ85+upyKQ4ilpeIbLBV7kUtl6t+p+e6S2jRKU1ZtPJ8vNr6f94wmeHpK+364DydwQpQqteEYPTYJS9tTWaH7GTyApRJJ/knSIZq7IYkUQqvUyaeTZtlt8i1tbygVARJNbu0qqvbdcXFWHBIgPIt6dfusIZ4Wh4ttLnn9uJPKXb7X7SpW62z1jksru7Y5pM+Er4RG/285rX/dJu+6mxTYuSK72LkLuxnyQ3uv2EUWyV/TjBh+VAlyQfG/LasMRf6nQpKqwQJRIOp9VWO2hQg6RUqGnpHzAH0eelj03SQK4IO1NgkipqCksu0hEV5bWVtUWfXBQ7cDCNQGlBpz23kakVGS1K5RnLj0CTDp8AJDnTEE1V1seGaNNznS160X6WzE5Vjmdqe5qk/nnuGCFUlebsZnzEhxqVE5U/sI41Xxvf8jYQYayu1Ftxr6Ider2sLKUESRXW2rDIlIyzaciINAOV0CHUd6bvMUmavCiSB64yoc7Ijmj+u2H8c7Y4V9s/6nlO79TxwPvD/wvwyoj9ZgEkZzRj5uJF+klY6LX3G6LLv3s6G4H2K4rTv4z/eOmWqrNx4T2ZNFDs76Vy+sp6aB+kiKy2R8xLpbv+kKe34Bo8k+ymlqb6DR2ujpgwOKuDt+o+x0psa19GZ1fIjdpKXRSjJM6h5HH/Llu8x0bJq2ee4ZSnbY75/hF3Q64flmXusuun9vt1pdPPMv0eo0L4qp9mruTOTrlIv7sg7pMqdd+yehe8+cseA9pXqybJKB8crshLXr3njak3WTXTgQXxN0k9rSZ0GZ70dS/3Tkjt/X50QeVeFo7AVwQ19oQMdgLOdG84VlUqRgRtdpUJdW+BjIB8pSuaN5TvvpdzvUPOKqk2kJm7ZYSUSGkRzHBemZYlHnN7lS1oy1uHZQPx9hq38IFlBErCYfPBjAZIkelUViepIEeSv0DCQkou/GEfptaT3reIK+o0W4qie6ivBi2CW8ZBCPAL1Kcad04cAoVX+0TuYSsLMnGGnLNS/Yh9QhEA9RNwumyu3LyHcHIK42zc2JvEtnc6/L3G/h7bGMr/yQBZRWhOz3kLteoNuf8zpHW4N3rvwYhSUK1aQmdHCeQaNx5Jso3Puiy6zkfHdHygjPOdW73nSCtsKvNh3jbeL1wvv2rqZVBJFRbPHIeKNzHX2PdOCuLSWL0CasjlTN5DUvtzPHxqaq9lT4Nh7EdbhlUe6s7O9WfNq1+pzu3qt1yPbk4K2g0FoGkapP73bqisc2DKFyoy1Hc6hxtsfQCZBCOsyL9cO++uqXcOmt+o2W77XZCo/n2ffZ0fVETTuIIkC6ko5ziDqAyXJCO/hxpBo3h9oN4FWkS0zXVhARt0TnibFtEEidlb0Aw7s4OxslNvB6BK43n7VlIE1hDqaWPXouoh0VbSH8OiCaPt+X31AUxH4FvlW+REgLeSgikCNS9jWih8Mv5v22kLPdBk2fvuWNrZOtqJ93bqrmj/RMHLnFZk2gH/cIbjcC0zw5Vm99RnYY2/O6Q/275QbOLGry8/zVNTx261HRZgQuSqy0k4w7fE05+iClxCzRw481BAkGnGztJCeCCVxCNgfwrx20t62F5vLavcvjL/ocEjnLLkNqyV7meto67imAZ2xQhH9gacD0b9dyx+am2Xp8eiSNOIIVdh3gC6miOVF/Ph6fFjXPUbqf17O/ercnoJfXqWq7VG0KQfY0EDlK8JzKEOVJ/sUiIZNge4rDV0T0+GoIUB7lEyDEP//kP0thT5ihDbfUazxyt2cdeTZxf//MpiDJ2HJKieEX7YZ1Vz+/+RI0W/g9x4r1gFmqeeeDxeC7c3UsqTok9KGThrcaEPGGwaA+7vI8m5JkL6+qcPMGtSCTgC46dizhHnrQC1j8v4qHW9zprTGY2kQfjyDaBx1HeMGSZJ0dKd5s77z5evBvzT3Xuie9HKZnVqF/ooNVWsy93hsDxKkpwWTnpkZ82xG0ZdtfzkMww3fyPofj5tNcsnt37yVSBejAhSgxCUsDoAYve+nX7J2fv8+T2v761aEDYgCj+2M9HSWTWU/KneBs5BCM3rQ4ilYMoQR6g3pFBcRqk0TbKV6rpkYxmUJnQPuX8CJm7EcHDcCNENELIHthRXLlLoZ3TgxEmKI/zFaICOpohAxvjsgg+4yJlOyJCCK9WzmCafNwSphyP3oOgiMBLqkB1MYhK/tLdVTLtk/amSMjwo80hvQlncGI5FwU8+jCCshQECdVPIwrW1Q/+JNZJ8tzyNRdypwbUVrZ6ONydmWrg5D8yGMLQJQgS6pRVRDWzU1kMdXkQ4tHQ9oN2/PgL5zap9W0fNStKs70FUrWD7jfwJikR4p4Tmpb2S9TIah9zCLWGy+kz+OTQlAf4q31kjshgzNr+4vFg1EG5CAoozvGdDftXV2eCYDJ4TfJNlAj91rThguy1eYCGTTIJiAzGrOc+jwenjPIIOkOJEGdsd0QtykdtrR4DDg+9MiqdFizN/rT3PMZw4CEZUokUhSjUk6aUhH7i4dMQFsC5UehUUM0nt5/f7Z4131k2bvDgccveWfOebuffnkKPVEHPDASpIgjQgqd1/IGog1NtGmb8IINiGmAtNUHjM95d2+QhY1pNnDevc6sxQ2JPqwpjHW0YePTkqcIrnULUwam2OI/pffq826hDtpeFcNJK/JFfxUOjKAQLEwNPljz1SQQFog5OtaW+4wnbrNdAbIbaLt2UPytE84ZW4REs3B4YXvBUax1PVMGthDhSRxE8MAVq9xnRvKGZBIKFo/UhJHRwUfAE5IgqhCpxEpIJZxF1YyQjmjf/40WrB+IS/SF0Op518qqoQrgSaimLNXNd0GG4HzrYPcwZ1sMgJXRM8Qb8fY+ffuKdmEyTnQSCElEHz6FateVu7r9DKycY8K+GaDQ/MrYPglngZZOfbvEheshBEQQlIpv3G4gaPHHSdWt5lENwgbvQHYakEvR5fNBleGOzZZI4cMceAkJJOm4dxUbK26c1+RAOKc0hb0rI9Hz7QqG7eQgpue41ltw5W1LpHEQTUcsTiEaCcfw3iKZHnJNqz8GEv0WEgVoQQTQRtRKIaCTk0JtIa48TQD8e+4AuGlo6Dq3VOV+x+zoG0MZJeki2kWIpnXFaXEGXnY8IZ7JwJO/uZVEaJ63BI8QT5oNi0WfRdHpNYbTqIL4ofZBxq0kUDZ2Rp3YjEU1gE0gnnPAvdDPLPd93GhaK+Wr73z9s0b33RDm9Dm/g0B4akc4/KA6BSPgjO5HI3VjrTHv7BeCI5SaH3/gOZtxhFVq1cGY98iPxTtxD0N24jAK0bVjEWNE5AaaJb/caeXEbaRq1LR9/kID4PQYGFMYqflqsXdo53mdE+JChaOA/PEF/mCQ6yKA4jKCIZ2XhWnVc8V3GMqnJ1siP1YkCagUSUT+kszQaYfGLT+m42mbeiw3msBFfHRw12VfbL+JmTACiwQTZgzC/0sew0HCi2KM6ep8d10+oTRBEY1DG9bEurElgW4Q5QhcT4Yy0jt3fI50NItmBUpo/UDz9jf0W8Sv+DJFMUEnWlrON6h7i9okF6jxbc8HbRfSn1unz4qjgzJ66OfRDinP7T+USiEaiVIbiVtWFzZY9fqKRUNxfGgGpN8Tejx2EQHIHC7G4P0/sBGyGCBBq79ldeMleK8ZxjNrtSvC+oTaq47oceoqGTv2iFaHMh3XLxmasFuIe1Kp6/IKo8tP1BOIexKHg4TEfpUadcxwFXbMhvSDu4UvK5sQbq0MophyhJubZLfiO0hO2Ih1oWDJffGTM+eGUTSDqBcdfRR1TRNDv0Ttyou0u9yDZWMTspaE41Sbm7lYWBHEOnyAS05eJRvW6OhJ2vb4l8SjosF9qALouettkO8rmxDyVxHomgbgHyjX3jA1EZ4VwCkRj09oNPZdj+m4SI6KnUDMhET0dI+/4kR0G7aVEr4m70JKaHI3RR0Zr5n5B2Rxrv9ECAixyvXoG5UbaOQl1rOCQnXhEY8stR1KbiW5urVGHeAjxiOZEzyZowBJziAud5pPWLdPFXFYdr00fGq3BSLlE1O9GKVVEnnxFuyXs3p4EUjQiUZw+EnlavA2JfkyHuXPIhVb0vE58Kieiu1FnkER+G1rVhLB6EzUAE0So4tiox0hA5NKdmixEPCmVQuUdiIeAFw2J9Xi3VBoXIDEWyBpEHbIW9BSPI25Bq/mCyLWxMyEgQaLA0sugE2UTUVO/gOhj6LXGDuIWlyJvDuJhbB8ASBQgSfIREmM5yraf4/d2jMMWNVWGcbIFsuLU7a/EAflitwFpAoojq4evbA+thnGkExQKDYsb4il3DJ5e6mlkRf4gTVw5Gl4imIm0pnBCjBOeUCAj3UINCSIooHsbwUykNaoVnq44oYeSPlUm1TohCSIocONpSdva2oDFtZdT61aRx/hZkCSCgmJbO7W9pLIvcWZVWkNR+xiJhSQRFFT1TVL4RAhyEAdK8dDUv4yBRBEUhHRBUpLeYFwIcrZBXIJE5jVNCUOiCArceFrSG9XSFqwAcYHSuE479yZZBAW0TIJgJqJa+6bAP6mLoYml9qQygWsFbjwtEa19sEiOADKcfkjJBK4VuDpiaYlobZEaRWD/iIRs4FqBG0+Lv7Wl9XsUWnNe+bvKBi4WFNva/mqrZY8I1NITohnBxYJ8xyS/i9RIMGd0PWKkRF4sKbba/ns7/iZR8yC1EJ8RcS2gQT+CmYjoSURqNOIoRf3czIj4AJDzmESkxlCby2hXORmRnyDJeUwituA59wSIqEjk9DEW0LaFQBpIHh8hyPkmEQoQdoaIfiRSOa0K0qSCg/xUuPI53yRqPGqMkHjsneDuWVOHMimF0AUICvIeuIpkxi5FVPZ2e2DDmSArAQHyY3n3XOBeQHFknZtlrTiq2tj6CEZ2dFQxn3eFBk9pzMUOsxY3kChAkiTa90aIqGqrDTJEg69XKQQoRGYCYtdGg0SBWj0UpJvXCaKqrR44pj/Hk+ndaW7nVHE/Wk2TsGwBTVP0LOdqRFVbfX3KLTUptl4gQvYpH6n0Ksw/tQm5MdD0VEpqRLrTrgURPYmutrIgMlSnZYYk5fdKJrCxu2GUfzzCaYistjI5RNQIthXpkki3DA60cBezRy2WRhFORWS1lbKejNFSsV6QDfqF+5GSiLgXA1MwB7Eqn97REify3lZL6dKujfw46d1ypawRs1cTQrjARDgE9bbZdOsiW1vdwlJVkBZ3REAgcxhrgHgaaMM94myVjXlW2p0bENnaSp1YPnAoJAICZdaaRWlS3HTepehplPMvRFISXW11CD+FxQrglcF6mZwgHI1YOoQGJ8IWwkdE5AaKn+hqq40kMj2WFh4n6461qYincKhjID7pRUQMYOqAWEqiq63u4Gt4UOm66lHDxXOajI85dscL2Six0EVqrJm2K5VE/yRVtck+AkHGDpVZhcJWm2S0UEIFQyryh4pys6pfxrS2msrIH81MaTr4ToJH/jjE3MPxzxBY8SAhHTGtfZ7IokwaJs87bL6INbFs37JB3ajj6EaanxNISEdMtdUm6o5qDoLvc41Y/wBxCEt4y9XL3aJEQartPUVMtdUd/bLutaFZMi7yAIQkQpojxlJLyoV9Scy9LRqZIMONf4uUTzDAso2fM0DTAsMe5nQenaWsVpGWirjWJt+9BE1O4I1yMg5JkZ6qsyOMnPWgSRz2tJnyOGSapScR19p9RR5j1gbLVNmjzClOEXiyuBgRYcw6Xk8ivBv6EcS1dtBdB/bO/EEvbEZYWRF67tIyVHtX+weF+YhBpHFkaipSVtvSSt9dpq2fVaW2sZpXy+mX6KnIIgBOMBK8+1jEVjs48tS2MDwbxhNe71iR9FQmF1CGaMYDYryq3IUbZkBJxN3bxkmcSFDM+0Amey3DI8CIconwnXVSobAjvbcUWRQiRCQVsa2tlYW0kbPmedl0fdKOp3bBTG5AoXAjvVeKHyL8gv1AYU5684rYautmMH1zge3kNKK14dgoBjVtJmnRGD8LmwA8b1WX9ZOMpiD2JtEPMe9oD57pfk0ecvZEU18vm1O7WNNHCiKe/i6Jb21hjhmZj13JTSMO6dQIlWWOdpIDBxrBAqNSEkM0mfhqi58NJ0J9YSzGb4MQ97JYPp/Y4cEIDGp0gZ6lOsZHrnulIL7a6tuLGqy2gkVCjHfjO6QEO89UkxHnhpgrWkIknXmPIF21o02R/ifHW10s3w8BDbHG15U2ewzcbVR8I6nvEt9P0jAIVg8cRD3cJnuUXt5e4DP8pg9xf7a1HLPj96Vcoptkhafa37Ld9In2ShcAUS9wG/+z5aKf+EaOXtgAj6O87WxDFzWcSrs656k2j9dVeqPqhKpYI2m5/MD2c2w2P8Oa+/tpDmqXovHtYxCutlwBeBQxEfF4xLXoO1dKmQraR8GP/IBINWMLtRU0BvEEwj9J6dh3Fh4FImINXH20wwnAcxEvFJ5BU3+f8umvdMRT7ihEVVvZYqr+S0Ri6Cd/mVNkF34Z3MiNT+16O+NdEl1t6QxIKpOmsKQfIleuKsjSrS06kAUZlppoGEsgmoC/2vIQlxP68qgI8aeFzIwD+2EffEpeFTjXZ9lo1O0TnGEaR7ja1Hk0l47lyvhDRASwS5bAe1IU46adM1r5yqtirQkDZE+yocHxPN68sLpIZ/sU1MESkI9lk8A7WqMUvlhtMg2nZGu7NC8UOsn7c7qyBYB8AvujqaM12CMhN26E6npjka3tchPP6U/b1fy5LF4dh1PRvCvn5huZbgJTIi7kPwlEY1HeLG2o2vBKptYWhaPpNEhHjmz3bIv2HDUnQTQWud7iIqr9H+FKTFlTOCulMWCrelKG9QOBst1MZe4EVQYbUiORPlWmdFIWE1I8DVdDHcnapk6BvCrKYM7mCQhb8GrLXnjKJ1ogndcMwVYwp0ntU1kiL0rZQOXH3m5Bqos3dZdt3IcERIixwLl3CtaWX+KzmW4Udaxw1k0hCb9wXekBd0vxcBbBrIus38gxyvAsS8q1xSVJLjci0GMSZe6vfMvLWGqg3PZrmtE2kFdk/iSBtrVSO/vFup2DMvXh6Vc4g02u7KDavfSsSa0s/nlYNjqfhf3vpkhIRJ3D1g+fnAVUW08n9Xc3mM4gzkIXpQmFeDKQV1acWRD767+Zv+Zggbe6wAdngl92nLUMpSycqo9YHycRHDlH+0qVvIDCqo/UWkEmI50ZmKNDVw2kmyskgcKqD8unbdG4x+hUOaQMUjqLUVq1gc8tlfertQ+s8B+GUAQ7nlZ9TC1aE6GGGmqooYYaaqihhhpqqKGGGmqooYZs1Jm346PXrXfkmWtoLvzp6XeP6pnKIWENiZR36nn1vQ/vuc3OB0DJL4K62+7V9sWpn559TKvMKgM1ECOPeGydZy+fr4yI0tB+cKMTLvr1F302TQ3JdP9krVuekvZ7xdG+wX3fja3pXZKZdvspw3sF9vjFMqte626HFOOx/29D90/X/haNlQ937f9dBi2NvxN3th2d/+5Y2eg7DMWJGgSdXrJOBs+VSV/W9CcGle8rpc2qYdb2xRyDtGpyTWDln8iSy/dTzFFWSinoYtnn/30ZFtj++phV0X50vV4XXfvxLV933Ns9frRxz+Zbn/P8asfNqTe6fUV8j79mbgoMKzEXxIyo5/9x4bFN152RZsi88LAdj5j62F6NcKWHJpksRFZJlEGDQ8WULoduUMxUcMjWn3VpEvEEoDNy/87cq7RRLRoccm8pP/rDOr6EE8dtyqRN/t+VkWGPrFOeLcHFjsHva6qDIgJaR9hx/z1QRxVqKg7pm/3E3gg+OS1kIXMlsv6ODHQGb002zOyeK5bKt5wjU6b8jZdg1RHEYKO09vHpOVWdbwEyOYdctWiOJgAxx3oWzdkoGxTtSWvloLJvdNdgHWic4GekSMagbHAOkldJln7F/8ImHSI8R1RDY4vzxANW6caGt696c73H3jqNncFrd2paoGywSje2OF5fcPg+4TPmncY+RVqJ50nDt1A2WKUbW5kEE1MOddeVWyJHseSpfFee263hLgyu0ot/ZmNzDm1qLSy7jc3Z6/e9kVkqQ7cm55sOf6fGZrNG74QcwtPY/Pbuc427kpqdxr+PX+LbNv47NPZFxpp13Qv1zMLb2MSmu17zXbHekzdZ65A1jkM5If4OjX1DYTvlPIe46Bu5AOI8IF02vfC7aeXpl0rKy1us9b3wYBlNPg/Ivk9+dukKyLPyb/ye17DWI8ZWyg+H0BEXzkldFz+vvAwFtL5o0TMX3jL1u3WHRbnr7z7s7COm/jR9w6NnhpcQ652/B0LgDVxUCgOFl/cVF2psXsvH6hn96IV1yp3G5pOatdapF7332+Sdixqc3vZInAH0fdvTX73oHfdw3oCK0dteF5pB5tHY6gDOFRXlirf3GYF3Lbakg+PbQMwgh/x47IZml1McjR56sKPY6FmKBJBDnx24zl9BMfweN1Ru6zjiyJyAYLq+cGqPLk1GF6WF1r5J3atOC4br+Te230faCsQNqGihUOdE46Snv/AOrLWR8nk7rvX083sdjrw09Glw5iHfrTvD6tzzXxtZWRp74ES4VBc0+kdHhIB/Iary6tU3f2Sv6/ssu3zc8MG9RrcPGN1r8PAul9+10fWv3nzfHkf5B+f5N3bScZfLnemiml/vYGhb37jFne44ezshFUW7MVvNG9Xwm6sDvhl7zNCtOi2MHRzm340MRVGcrlNXKOC4hffZtWcbA4fh94vTZZ3G9t/ZpZF/Yxt39hdIWkGAI74Jl+0lXCdKpszGAmCmO7s4qvQBuYI1NmaQxth5yUWBv9uVcvNghW/sgDNnGBvcTmNXhQ6NOOAtIN8HpD66cMUg2Dwgtt3dPirKXYi6bxQy8mKrfo6mTr599grc2M2ecG0uQqt+gxfluVkzY1/lOlGzSjc2HpCM7feWR2Uj1NicE16sNRHZpXBn87+k21ebVfoB+YqsVes2XkMi/xJrRZPr1y5tu6bzOb8N9mpsrtoPyMIWt+7W7Pwozei49ewb2355RMOstl51bnv92I/NqZPLqt3YhcrGAyOneE5jd8O7YlZF+2U//35qSnuYvVdfcH3Y/MBYZSRW8caOw2nsy7rfvcBnCFm20Q89bv517Vve6LfHFb+8++igWu898V7HQY++e9IV183e6ZZzO7S99vHdfC7d52x53p3CQ3DAKj30i8c3Xf/wyTVn5WDhO+uutXtScerYF5DDA9JYG1mZ72w1g+y/3Z4PhTfI0tP66H+9qzSCnOl6zZ2tsKbrQx7d/qD59dpXpL/LeRdfr8lx00+yTHHyv7ONOekpSFopiLizAzp98t4FG3y+xleTDo/ea2Ss1/WP79x2wgYnbda3Fa4LyGdtpN3FCX6n2y86IsNBGck0HtlizJ2DHrzwkTu++mDSOg12/mzB8+t9N6/TtHbFa/OHN3xjqOzf8IWTft/pxXM3PvOZ039+pMNj/1pvn19qnTox/uPz2fBVB3rG8SBkS+bPM7Z/6IsB+3kmCmWNuk766sg9sh7CIkm8s0snlzv7T1wdy0wIl0Lvwx5OtXf/x+0zxmS1PYrrs3Milz67zsm4PI7058FGUHneB9en90ux0VV/ZTvAxrmzizn6IYl8LA/649gqxpaNONxkTf0seQaiRdK/JY5LzcKt32VwF+809j/y98Qy2VFNKXbot1UfFDBzZDuDkWcrY/DXSrJD67j+fignI+NO+Q+KSMRd9euat8Hz682c32XRQ79W16OEo03D1YZqufx4JBTDsA1KUkqqe9oMFBRPeIn18p/G5mUKWb746TVRakDx4+wPobbIXkUCZ7FaL9+m+Pt65Fs4prp4hl8rjsxPINzYjI2+fkEe22PrPj/eNzQvYVIzUd3bq6lTS3uqTewMJ+o7bHIfiiiR6Z+gwGicPjvg1WtafpLm2/IxbXHH2YdGPdVLma63UgasOPJ72GDEi++v/6eKiKbJCQP+r0+y470pdIhtLJGNzefeU8adcP4GWfckD1v9ta6NmsSMn0pp7EJtHMTPnqFV357q9LybZW52Ovr2kiR1Zx5637tn72IM7iYPu/rRPbdcJ9p15+EJj0qnsTvsHF5+OuDnzae++8Kf83pHqWfzakwbdupl/1n9lpvDU+r5e12MECipsQtL1b29JR+rKT8yZxbrf+qhKOXoD17aZUh3/5xl8sLO5z0UcTOVfRD7C3PH2eXtXiAjVZdZS0b3Gjy/dd1n/+/VQ++4+ePdJ2x+zsVX3rD/gjseanBRn7qt5w+eMtprQDPpiiED87Xw3QpHZLM1FquRd1tkZeUyv8ro9QtSjOVq7b8txG02ipsWOo0tNaIue/HN0vWz51wy4VHxPeespLNU/YzVXflI1lkz+J/39px0dsqfycCG3ml92cfI9+CMRpT6WfnATrc721mZ2HS9zgPVGlze6meHqXtbciaSM9J9Q1xvcsCD6QbMoP9Lhqa75s1Ih1oRjS0Z2vLYCXfc3zVubdVm9OFXXfp9v7OOwfWS3HX9OpnPlQVIzEi5x8yqycPIzMC7YSsidkDUionTjUT0OA889+Xz1/7f/LKyslkKhvdZs3hq2QE99j/n4B0h7VAFun7BVOnfSMrIYf+H6wMGX1PUscgDbw/PiAZEHK/+I/JBwoHPA6dN3OTUt2964dO1mj737qODOjZf989RnXsnjHH3RtngH0guhaXK5+OuSMhIfTVm1JQtKtp51cDVQmOay5ciz6YVssF+/ZGeH3Wcfi2XhcV5crz9a3HPxlahkUSj1ItJPrZznAXxEbd/LVCtpYG69xX5bI/iEOcDKsj6snQa/7fR8LmvIJKROuNRF82kyMXOhUtrbb/rV19M6rHhDY/e2SKqbSaf4o57d/P+UNRZ4Jom7/bOq73LW3QMfedF/vBN9m4z4czTV3uq21cvH99h80fHIDU9R6MqmgOjRnuXHT/C7CLeOfoIZLiUOzM3xi5BjsU0wx4B7LdIncpeGkesthFKNChNhXDI4vWuQkGauj+f1D/LVu8huE6xxHScYND9ptAvgM8e1op4jL7k6ih591pf905ZP3u9s63InY0WnWvd7NX3mw2BopjxsX/axup2ux0iyazrOkCJGBSsG7Gbf0BE945j/zWjf0SGRT/kOtQbcdDaZxWzmFa+3YT7u4Z9VQrOhUwRTH77FBTiZ6d0as4DZ0IelPkPyh7YBvlEk3GN5hvTzTf86/0vOTPSk72dU9NwT6IZfsqFX48d2inNdsLkMUPHrr57gxhP3E36QbQIRh0Xs5IoaPQYRGNx3BawtZHucCWy+cNz9T971u48o+G7wew84rkTXCPxb3oNCz0ybOZvNGDTLz6b/mSbQWPnOe0+udO8sYParDf9s4M2HdCnNeQj+EGo/hXFkCdRBqfJgB3++/BmMyYX6jc868GXb9QbwYx1vRri0Sx07oUfkO5wAbLZH8aWQP9rlSJJRGf4OLLBnIgxzj7OAC2BWfPvGnFC66RbzWa/9/FZRWBMGZ/dp7b1Nwys33AbZPGuLzAaj2BPSIJ6tZFu01v1gs/ZXUFHtHZ7vwfmzs7jYE+ku4w5DQJVxYGW/l82ntCrMzv41xPu07d32+hFd2Kg2lgDEWsHL8rcemshrjkKGzYdEHdwxtHfRg6S7tzGXk3Lk283nIdPKYaxvVDMCVdHPbCnvQGRhE32tSAFno14FkFF/b+IGnwuc9oj6jDZ2XqJ8bY65J+2GV9eXHJTSe69+qu/4NA4pRY9ZT4RCV5WgxAIjG8tlPq+Z/DWE1kR04XbkQ0+Q7KfgVec/xsE82HupW2KWkwzUOvqV8av6nfCDKriPST4sB8zgyNKnIF8z8+xHIMAr/tP3n7qRygpQ3Ik3VucF+m5LCOb7tNC6RwUz90o7FDENbc90wCcKRZ3T0U73ChyvVwmJRQXItmlO+Z5HmepQ2QOi1hOLvwb+UA4Y0hg4esXX/qbz0YmLUvu2fLFtUqZggbgkfZtaMHmM5lByJ+rmsM9J2I+jAEk8QKSQ+Dp5emz95E5LOrn+jrywZdITqC8cuAm/S4tRlWoy8v9jhlYmddiltpKug5xTR0+MFhzQ8H/sHwMTVcolXjQBriC9pEdHPR26h2FuGYGlLJORzxEb7ujuhTJ6Zi8Scevb3n++L2anRAxAQdTTmi21/HP3/J1x1F56a6B/WX5fRAN+A9P3QdhAPtaFvlF23th0cZPvdWKqdOR9FQ3X/TsyV5RienSkqj99qDn2sw+58Ubtnnm0Fu/Ov61G148Z/bDWwzaMYPWbGagRbMhogGP8FTHpkTZ2tyLeAh7HStmrKAn9a8Zf9u0CeqGOxIpHn6GiGQZUlcSMHe8D1FNeSPGJiGswY/8d0RDKM1MSZy+CX5QnEOPGjKye/eRC0/dFQkRa9XAOR0lr960esBINLTmTFrfoY16dBO3IBrCfgTFaHgUGpu7AXNGjL/LWIj+Ne7wL2cNdRiSVw5wSGWoYS5kbNZtCCvUIDhycdtWgXoIqX7OilgLHR5/Qsa/IAby2QSsLhbISv+BqKYPY78hqDlMykb32bbJWcSKn2La16E9PT4P+itse2hxMwQlo5G6kqAeVUrxp0V9wXs86UAkadTCReRMCt8caJ84cNqi2XBjKDer9dw9kBHNPRCWHIfUUui+E38u75/PpCWBIdhdg1bwHV3fEZACqzv+WoglufDIRTFbCihSnJg49Imnb35qh3vmTlp0fr8fU6zH90XRIGJ1MAvt7hcljYhQ/MmX18RnKV9hhnL0ySIhoBInWZRFz5EXSwlFKWY4ETjr5U2RXDzHKBXXiqo4acWlP37IrYXOY/+7Z4O1XLuIW6Rc9OyOY1tT1vMrLpWCvQkzOH51PQUXBLqEo/+FtKpE+ebt8wASvFSq3Y9xcVMs7AooNkdybnyEgkGJlpmFygdRkOTjqj/fsfIOfNaUOLPBWyHENkOClw8hBBohOTcc9Yc0i35x2Gs5jG1a+rkfSVRqvZyX+yLJYeDdymK0LGG8oL44kJtrAYmzEdQMyUUyT41UmxypFEGX5X+qocvIvfBZbMojvt2ae8drVbvvkBSFc4RfvVJ3NmwcHaKDkVwcVysDtSZjC70PQLjXR8itQnYPFtf3uu5qY17RuGfLA4MVj5OTHUDKgZQmtOZSCs7R012RXBx6Ley4rXissV69j9qyz49yba3EaT9lfo8OX5602XWbv3XRYPM0jAkpHv6DIAsqEiaEWXC3e0uyTH9NzabukFOvSnVgwqyjRbxqOTHJpuqr2NGKxjEV+grJOXAhigQDSljxG6PVry5GSqFwhupWmlXD/GbgbI/9iubNYSn/tqtxgeJdpJfMA46Odgn69Ydpva1aSCFmKDv9smTNrxwYdOQO+DyLjZ75PYPFhL28z3aLU5DIQLljYdEA6UXwi7qHt/0TKZIPGyB9lrNFVWX8smiJsKOiz5xVVlZx+JWHIScldzp34P5IL5ETURwIrf+mplzrVf0Qega9per+32rblZhx1KdNTzq4zUnvrnXZqUXcl84eez6nRP/TUUaIUpNIpPHxKIF971Fr0XsTT2W3uCiarSZUsPFtilEf5zgOUMflsEc90LFSuLxYhZlO6nTDJf4tkPeU8uayjD/o4nlAPkFuLa61HXtEthrSSwAnJWseRXpWOqpJQxfz0WiyWK2Y143Wj8mVnkqtdVFxy2pu05Tsq8mZp7OfkZ6Rcr2Q9W30gmT5F5Bhx8Yr5OXDMcHsYRGSsjFEuS0BUxoio0g6O8pMdxXpFkdrmt/RGyk+gs3oeMXNXNjFtHD4qqh7u7njjHLbknQSGztrAGUhve5U1Fe3bMXGSIniPKW/2SzHCbCXTWyfcNHKZnG4jqHWQHpRuMY0SW3lZ2+tqH8BUqJ5W/2Unn0bKVXDVupz1Hzys6Lubdd5RQmraZ+iCMVcpGdDL9oss2cyfpZqze7kb6Z45qldyF1nKE2DN5GVidqO/csU229HBia6dltFHfVzpBqn/5CuZ1iodCYq4nSNSmOoWjXgz4aJasNvw2JGgNfhYsWAIndBujs2YkXZ1Q7Rum13ICWZK9V655ZxT9MSmKjUlHal9u2sWv5lmZuJcj1TA3EbxTE46u/s9CK8eHeai4vZ7xmu1u6418zflwZnnjKGxzh2nrq3FxTxF450/XEV5eNnKi5WvBOnCBhBc/UYGpdtCXJvNYIdXAVqDp3UnbyhGs3rp2UxI86GuFZRUcS07z3XoXkRI/Z9lJX/Mr9VZjRD1FE37f9CSm7MU7fivkjgDFU7OK8hIQuObRcbnPnRNsyZzbDTkJGexufiUrZ+EU8N3YlNz9cIQfvhOt6cpfZXvXgR3v3KoUOl2S3jk7Zc97XgmcwrnwO1NcSRRa2anoGr2Y3FrVz4qa2Ww3qM6WQw5m21ze8xN0pipNq0VvTI1vdvicsUczNr0fypVwuXXfhvzf63xDl3OvvJDpDjdNBKXmv+E/mlU1/voQt3awZ6L+BXiGZgGC7VJDqvNXGsDIpQfR9l2zsFzLoSEmGuczY/NGVRfn6yMjDNaR5PQjgDLd2/NsMo2R2pl0XqhUfi9mMBsyI3BzzuiYCralos7sjBy7cQzsI+7n2S2nW4uyo+K703H81LUXcpY5HuuJHvobhlojADA/OhaIq4s0MKCGx4ysHbbe5AZHdkZKH8NEfXJCBzY+/3fH5LgM/1GK5Qm8+cCiQNH75fjygT5wSc9VE2J5UdTHfXD+MHyCgV5eAzqbFfR7SqMU6+OQhJJVDfPZehWYoNkMbuM2RAXgsUtVFghA5poYApUOl69ukwDt/cAUml0NN2pcDYQ4mtPdAwnBc0Kd4lk0NiY2N5cCVt7PApG4nudJ+HoCbO70Y2EhsbCwQra2MX9nEHgC8hIwLHECpRKzwLK1o3ouwdOTkdvnkgilNUxKoJbOH6nYw0KS4C1diRD0iMFkty1ZuB3O/sQmFflKeoGIsMDw3d30GRK+F+VvU+m9PdPVZjXOTUexd3gD0pV7uiFbixU3Uj3Xu+3bFlAoPcncR3SOHfw0T3wLeyu1FEPih/QCvKA9Los9OcTt3v2fnuEn8aRnjtbaYZJhBVStKkZoXss5e6M8TUTPLYi9dPsyCWCytKN5JpNLIOJIugG4ow8J2VUjWsjHf2ERAsip2d3Y862rS16om8s6HwsiL22aFjBjLhmDdpe8xqYGW8s7eDYJGYO5uV7mC8Som8szGjWiHH2dEbG6kwdjajt1WqgsjGXpFX/XaCZLFsj3JCGvRVzErZ2O2UxiIQR3SFQS7PRkBzi1AxKF8bUQ0uzB0UvwI2dooZpLPv9UFTH1sj96mmTV9FUCPc3P2EiGa3LXBpzqht5JWyzy70tNeN6nmNDOAhrmwsfw7a7nY4TxcKVyComVOCp/tYVvIl1ocgC3yef8dgZUQobNYPubTeYJDTF7G7ctuZaXeYzY74hMihH+6dPSCvqCoPghnXRhyv2dd7Nr2gblMhlf2GhNY/3EXVvHbBKreOPLYmaZwdomK9PBXQNBkb2z3SJOxh7kOY+qlR9Vb+0301U2JWuzOh3HF7iOxGkO+hCAW8ZLI2tlY+lIT7+Y1lxmhtNDvRXbO2GHw2xErmTJToIdKAN/oo8py2rWyyNvZkx1WJe3DEYVhuMO6MnsrdhI9kfz1pWez2T5pHIBFGeYMLU6xZcSxZG9t1DbAlkhVQcu5lbheMjWztenmOA8ZqfdFe6zwe8FaUMTUx9hFIEZN0PYefhPx8yTb040yzd2gr7MfbJhhq2Mc3nYohVojUyoCpWKpcu9UrQgmXM1XtMJ1QRf51Mje24XtcYPunwKHgg53B09negUKv3M3ztSFVEVZfk9/HtaxBVTlYzN7Yu0AcWB7m+qLf/BxxzWLfGej59deKSn0aYsTJv9GUa4dXn+dr5WFg9NlpH8DO2VKmo3mYD9QNb4J94u7tsinZVbBTsJYyzGod11WHWaz8CPYqQls5LZkfkIbNoMQ4+OEB3Ng/IW6y2O23S/X3GcFWymw9k9VXLXXeRd3SzuqNp4jGLjin2genFO+MlAd9pmJnW+PtKdshOXfaabWVC1P3By/hisgj0vKhiG7EtcnQe7nr6iXV9s08Ks8TjbnklDQW/EVSqRXgbkzpjePSYC14eE4O3LwUc2c3dlT81eFK1rbis9NDffLAzaG+vezC/L1tm1ynPBeMSGP1NdFaCN4GqVVBMY1d0IMkCQ6ichap+AAwZCtSPurzl3c+cscq9+12mxoxz/KfMGqyiTPlKtLoIg3FdCOFVo7KuzwZVvtbCpi189PV6MbNoLZWJ0o6gfcVV31/JjKqgOzjbMJZ9JlOacqjygY7/mFpqL28OIWpR/6spvrhr+I+vtw8sAhkN+NOS3GN7Zwu0ZqeKrBl7lrJfy57LJIRyW83VOFPMxK9yPR49Cnyk127YqJ1lZ3vVlxjF57CNYBPbN5FsI0UaDF9uLmIsttzQ4rwrFEatVQH0STKQrCV/6jln6vqmVJUnx3S17mrUh1cdo9u0zq1fjW7w3E9VkdGtbG3nhX6bY3vVbPawXhXxFm7l0KRd3bBceF5hXJZGMxwiIfvMddEZh05tOrP0DCp1I6Utw/PbyrVIbvsonb6JAjJmlW0OlLU0I+zAS4Cj6Pxm7m/wMVPm6dGl216bpW4BYpC+4Bnt4a+Zu1l8deRhWMQVARuzXOl2Du73L8h4NsM6PuQdYrbJbWqSnPBZWDt54Lh6LdyfKqo/wHSR4uFHNcpRCln20dTbGOHjMIEk/yPljs3uxQCghPezHfTwE/995tZ7u+7mDtdo9TSwRJ50nM7R43xFJGaN0U39oe+3ZdoI/B2m99jev+7/MFjqnL0Xb7L3Tj80mSqvhVqqf3KNcXBX5ymSFCkOJguO8X22e4ZhYJX48ZM3XveYj4tp3R9sqpGWO1u2dYyodJjUOUQ619KT6hHsKHjqB/tVxWKI0Xf2YV/4jKD2OOxiAvWt9awdn2hSBfCMYz6yDZp2HbX5oUD1ZT2INqHbqcOD7T8BQ11pu2Z/AClpPjGLqhHjCaNT+hOr+OMbEHZ5fvmpntGDLxmW8OnB3/6ndtT+Aa8Sd3c++1dmKaX47ewflqOumfFN0jPEaOxs+qlPIrrNCn3Xvbe3VK3/KFf0edH2Cx+eH0UKRl/fuAOeoZyF1b2tNo369MceaBceSkD3fKf8pZwZ7vO4dJ74K8zqi2uEfT6zZ4KFUW/rmpnS/LaKMv2MjhTDcwNLUe6S8SRp6AXTQmN7WrXhQ5ijqPO7z3M4czwC1sWecIFsXgP+wDCb8/3KNnYGvjaUaeBY+dTN3fv5aU09mTHbHpdpKejst0/6PRgRdn8tYv0TbxBV1sJ+eVTJ/vGOeXfIZ/YyddH9HaekQuQnhulNHZBe+OUZD8KolYH6+iVo4/N6s1vk9+/slT87jr/leiTEp9Qvn1bX4EUB2cNgjm9esmU1NjOYafsQ6RnoPxH5XBWMKtBuiPkBJWvzLWtdg66KX7ovlA+mRtFfqWOQvS2SM4LY1IT45Brg/W77Xus55aBtpki2jVkHDNmn4LrBeOnp/JbNOOlnS2H9E1+bhPh+8Gg8vb1v23wU7RqmnuAnKmAlAOpZpCwWnysu3vjvC0zFK2LHS11+ni02RvMOdbb62oqJx9sjR5nLfktJ7XBjVGiIvn7y0KqxoYAa3+o6wHccdNQvOpWnbVeM0cnU97cIHJNufMhR9ur/VueYa/olUDv4KhXwc5Iz4c0fXY7CBBztrC0WLZAMjggvs9MYOoIq2M4c2h4faKyxVm2a4he449FVj68gnIVuZq1Z21sxjZqaxzWUel4TSzuCB/NqYdY07hNb7Anl50O2cvWPV5/9aIPDonCWYR4J89Nm+yNzXn1n/ph6RhK3Irk4vlzfas9N10LM73KpYOs5yhrsuZ6JcyDIunpWA6ei/Q8KKqxeX9xJX7iQ+xJMsvB9qv/WtZy5109tuCDtkPuN2dA/AHTJqcVlRDOrkj7vKzZOGkekHUgsPW+ahGHmD5DjD0eQxScKa4olYVXfmveYFPUGbCSJiOuzH9pVlPpmGhdUtJzyMJo7BuPiWAsBH4s9D/JOHt+9MyteQGdEQP1ctpgrNPwQOc3o7hng2OqovsIcN2q5KeCYXQjiYjZa61LjK3ecXsMKzh+a3PcmD74D7vrYGzw3P8ORWYV4mzadMntVCbjzk4ESwW1TzMWbLo85Rx1P0cK5cPELWzF+1MWI6NK6e1sryb67k1LlsYODI6mdgumFYucBQXon+XF2DUsfaAdHlZbtFXIl/gwRV5nsyvn6WkwFsE2CTa32mvNIsn/QSQ3hvS1lmBaP57XSRuRNDa37ji/Ib1kHBXJONSdvfCso5HCKXuj3DFEuExK5UmdQ04xJ5eN/rdufkMEH0c5C1IJbqlTU8fRc4sBjX1xa2PRaMHE8sI1CIOHpFi+DOx9iLlV0b7unlU6JHkEnwPa57Zp89HNH1y0aRxqhY26kSd2N54eB3wuVrB7Ozs2uW6YG2z3jDUE3vKXqhttd3L8NcCSJQ8qG8fSAp/YvNB8rqF0PaK5urk2RgqoCpULQfnk5vr4MM6s0Zfmttzn4mzazKquAz8KA/GJ+xvPjXq7SiU5wS7W1hSbUlVuf4hR51j93g9PnoqMnJmEDwBdSzpzOwMj8YEBoze3F8NORzrIeYPDpdU2lmeIud8hPVccSxb2ItKrGrexG7RxlZ2PQg54B8lVx3dnmmuDcx6pgvZ2tIjb576Y68dq7CWv+p5/jpOz4ydUNVdur7bKJaOfR0ZufI+SFU9V7WhTYTT2Xbf4VzYd11GrJLl7R/FSDqXyJX2ip+Lm4usqSqPqeUZ2FAPpBZfF/JAc11GrJBPwt1YxjR/e5pp4dwW9nd2kVZHL8bcufxzXUasiS/CnLn9CnnJWPa7Fn7oCsMr32lOq1YQzgTccbaJVi14Nqst8Mx1Lt97VmkevOoy+6Muh+Vt91FBDDTXUUEMNNdRQQw011FBDDTXUUEMNKySFwv8DDBlsq4C9XqwAAAAASUVORK5CYII=;fontColor=#FFFFFF;fontFamily=Verdana;fontSize=14;" parent="1" vertex="1">
          <mxGeometry x="690" y="331" width="79.38" height="99" as="geometry" />
        </mxCell>
        <mxCell id="A9gymC7fybR9dy0JzckG-3" value="Map making" style="text;html=1;strokeColor=none;fillColor=none;align=center;verticalAlign=middle;whiteSpace=wrap;rounded=0;fontSize=16;fontStyle=1" vertex="1" parent="1">
          <mxGeometry x="86" y="265" width="120" height="30" as="geometry" />
        </mxCell>
        <mxCell id="A9gymC7fybR9dy0JzckG-4" value="Visualisation&amp;nbsp;" style="text;html=1;strokeColor=none;fillColor=none;align=center;verticalAlign=middle;whiteSpace=wrap;rounded=0;fontSize=16;fontStyle=1" vertex="1" parent="1">
          <mxGeometry x="86" y="340" width="120" height="30" as="geometry" />
        </mxCell>
        <mxCell id="A9gymC7fybR9dy0JzckG-5" value="Online maps" style="text;html=1;strokeColor=none;fillColor=none;align=center;verticalAlign=middle;whiteSpace=wrap;rounded=0;fontSize=16;fontStyle=1" vertex="1" parent="1">
          <mxGeometry x="86" y="390" width="120" height="30" as="geometry" />
        </mxCell>
        <mxCell id="A9gymC7fybR9dy0JzckG-7" value="Geodata storage" style="text;html=1;strokeColor=none;fillColor=none;align=center;verticalAlign=middle;whiteSpace=wrap;rounded=0;fontSize=16;fontStyle=1" vertex="1" parent="1">
          <mxGeometry x="140" y="540" width="142" height="40" as="geometry" />
        </mxCell>
        <mxCell id="A9gymC7fybR9dy0JzckG-8" style="edgeStyle=orthogonalEdgeStyle;rounded=0;orthogonalLoop=1;jettySize=auto;html=1;exitX=0.5;exitY=1;exitDx=0;exitDy=0;" edge="1" parent="1" source="A9gymC7fybR9dy0JzckG-7" target="A9gymC7fybR9dy0JzckG-7">
          <mxGeometry relative="1" as="geometry" />
        </mxCell>
        <mxCell id="A9gymC7fybR9dy0JzckG-9" value="Dashboards" style="text;html=1;strokeColor=none;fillColor=none;align=center;verticalAlign=middle;whiteSpace=wrap;rounded=0;fontSize=16;fontStyle=1" vertex="1" parent="1">
          <mxGeometry x="86" y="430" width="152" height="40" as="geometry" />
        </mxCell>
        <mxCell id="A9gymC7fybR9dy0JzckG-10" value="Data integration" style="text;html=1;strokeColor=none;fillColor=none;align=center;verticalAlign=middle;whiteSpace=wrap;rounded=0;fontSize=16;fontStyle=1" vertex="1" parent="1">
          <mxGeometry x="110" y="175" width="142" height="40" as="geometry" />
        </mxCell>
        <mxCell id="A9gymC7fybR9dy0JzckG-12" value="Data conversion" style="text;html=1;strokeColor=none;fillColor=none;align=center;verticalAlign=middle;whiteSpace=wrap;rounded=0;fontSize=16;fontStyle=1" vertex="1" parent="1">
          <mxGeometry x="150" y="590" width="142" height="40" as="geometry" />
        </mxCell>
        <mxCell id="A9gymC7fybR9dy0JzckG-13" value="Spatial Analsis" style="text;html=1;strokeColor=none;fillColor=none;align=center;verticalAlign=middle;whiteSpace=wrap;rounded=0;fontSize=16;fontStyle=1" vertex="1" parent="1">
          <mxGeometry x="754" y="90" width="142" height="40" as="geometry" />
        </mxCell>
        <mxCell id="A9gymC7fybR9dy0JzckG-14" value="Spatial Statistics" style="text;html=1;strokeColor=none;fillColor=none;align=center;verticalAlign=middle;whiteSpace=wrap;rounded=0;fontSize=16;fontStyle=1" vertex="1" parent="1">
          <mxGeometry x="828" y="225" width="142" height="40" as="geometry" />
        </mxCell>
        <mxCell id="A9gymC7fybR9dy0JzckG-15" value="Spatial Modeling" style="text;html=1;strokeColor=none;fillColor=none;align=center;verticalAlign=middle;whiteSpace=wrap;rounded=0;fontSize=16;fontStyle=1" vertex="1" parent="1">
          <mxGeometry x="828" y="265" width="142" height="40" as="geometry" />
        </mxCell>
        <mxCell id="A9gymC7fybR9dy0JzckG-16" value="Accessibility analysis" style="text;html=1;strokeColor=none;fillColor=none;align=center;verticalAlign=middle;whiteSpace=wrap;rounded=0;fontSize=16;fontStyle=1" vertex="1" parent="1">
          <mxGeometry x="856" y="330" width="142" height="40" as="geometry" />
        </mxCell>
        <mxCell id="A9gymC7fybR9dy0JzckG-17" value="Multiple Criteria Decision Analysis" style="text;html=1;strokeColor=none;fillColor=none;align=center;verticalAlign=middle;whiteSpace=wrap;rounded=0;fontSize=16;fontStyle=1" vertex="1" parent="1">
          <mxGeometry x="856" y="400" width="142" height="40" as="geometry" />
        </mxCell>
        <mxCell id="A9gymC7fybR9dy0JzckG-18" value="Heat maps" style="text;html=1;strokeColor=none;fillColor=none;align=center;verticalAlign=middle;whiteSpace=wrap;rounded=0;fontSize=16;fontStyle=1" vertex="1" parent="1">
          <mxGeometry x="86" y="301" width="120" height="30" as="geometry" />
        </mxCell>
        <mxCell id="A9gymC7fybR9dy0JzckG-19" value="Spatial Interpolation" style="text;html=1;strokeColor=none;fillColor=none;align=center;verticalAlign=middle;whiteSpace=wrap;rounded=0;fontSize=16;fontStyle=1" vertex="1" parent="1">
          <mxGeometry x="828" y="460" width="142" height="40" as="geometry" />
        </mxCell>
        <mxCell id="A9gymC7fybR9dy0JzckG-20" value="Spatial Extrapolation" style="text;html=1;strokeColor=none;fillColor=none;align=center;verticalAlign=middle;whiteSpace=wrap;rounded=0;fontSize=16;fontStyle=1" vertex="1" parent="1">
          <mxGeometry x="800" y="540" width="142" height="40" as="geometry" />
        </mxCell>
        <mxCell id="A9gymC7fybR9dy0JzckG-21" value="Geodata processing" style="text;html=1;strokeColor=none;fillColor=none;align=center;verticalAlign=middle;whiteSpace=wrap;rounded=0;fontSize=16;fontStyle=1" vertex="1" parent="1">
          <mxGeometry x="96" y="490" width="142" height="40" as="geometry" />
        </mxCell>
        <mxCell id="A9gymC7fybR9dy0JzckG-22" value="Geocoding" style="text;html=1;strokeColor=none;fillColor=none;align=center;verticalAlign=middle;whiteSpace=wrap;rounded=0;fontSize=16;fontStyle=1" vertex="1" parent="1">
          <mxGeometry x="186" y="70" width="142" height="40" as="geometry" />
        </mxCell>
        <mxCell id="A9gymC7fybR9dy0JzckG-23" value="Hotspot Analysis" style="text;html=1;strokeColor=none;fillColor=none;align=center;verticalAlign=middle;whiteSpace=wrap;rounded=0;fontSize=16;fontStyle=1" vertex="1" parent="1">
          <mxGeometry x="765.37" y="590" width="142" height="40" as="geometry" />
        </mxCell>
        <mxCell id="A9gymC7fybR9dy0JzckG-24" value="Spatial Querying" style="text;html=1;strokeColor=none;fillColor=none;align=center;verticalAlign=middle;whiteSpace=wrap;rounded=0;fontSize=16;fontStyle=1" vertex="1" parent="1">
          <mxGeometry x="170" y="630" width="142" height="40" as="geometry" />
        </mxCell>
        <mxCell id="A9gymC7fybR9dy0JzckG-25" value="Cluster Analysis" style="text;html=1;strokeColor=none;fillColor=none;align=center;verticalAlign=middle;whiteSpace=wrap;rounded=0;fontSize=16;fontStyle=1" vertex="1" parent="1">
          <mxGeometry x="728" y="630" width="142" height="40" as="geometry" />
        </mxCell>
        <mxCell id="A9gymC7fybR9dy0JzckG-26" value="Overlay Anaysis" style="text;html=1;strokeColor=none;fillColor=none;align=center;verticalAlign=middle;whiteSpace=wrap;rounded=0;fontSize=16;fontStyle=1" vertex="1" parent="1">
          <mxGeometry x="686" y="670" width="142" height="40" as="geometry" />
        </mxCell>
        <mxCell id="A9gymC7fybR9dy0JzckG-27" value="Feature Extraction" style="text;html=1;strokeColor=none;fillColor=none;align=center;verticalAlign=middle;whiteSpace=wrap;rounded=0;fontSize=16;fontStyle=1" vertex="1" parent="1">
          <mxGeometry x="236" y="30" width="162" height="40" as="geometry" />
        </mxCell>
        <mxCell id="A9gymC7fybR9dy0JzckG-28" value="OpenStreetMap Mapping" style="text;html=1;strokeColor=none;fillColor=none;align=center;verticalAlign=middle;whiteSpace=wrap;rounded=0;fontSize=16;fontStyle=1" vertex="1" parent="1">
          <mxGeometry x="282" y="-10" width="198" height="40" as="geometry" />
        </mxCell>
        <mxCell id="A9gymC7fybR9dy0JzckG-30" value="Geoata Editing" style="text;html=1;strokeColor=none;fillColor=none;align=center;verticalAlign=middle;whiteSpace=wrap;rounded=0;fontSize=16;fontStyle=1" vertex="1" parent="1">
          <mxGeometry x="86" y="215" width="142" height="40" as="geometry" />
        </mxCell>
        <mxCell id="A9gymC7fybR9dy0JzckG-32" value="Crowdmapping" style="text;html=1;strokeColor=none;fillColor=none;align=center;verticalAlign=middle;whiteSpace=wrap;rounded=0;fontSize=16;fontStyle=1" vertex="1" parent="1">
          <mxGeometry x="332" y="-50" width="198" height="40" as="geometry" />
        </mxCell>
        <mxCell id="A9gymC7fybR9dy0JzckG-34" value="Fieldata collection" style="text;html=1;strokeColor=none;fillColor=none;align=center;verticalAlign=middle;whiteSpace=wrap;rounded=0;fontSize=16;fontStyle=1" vertex="1" parent="1">
          <mxGeometry x="530" y="-50" width="198" height="40" as="geometry" />
        </mxCell>
        <mxCell id="A9gymC7fybR9dy0JzckG-35" value="Geodata digitalisation" style="text;html=1;strokeColor=none;fillColor=none;align=center;verticalAlign=middle;whiteSpace=wrap;rounded=0;fontSize=16;fontStyle=1" vertex="1" parent="1">
          <mxGeometry x="556" y="-10" width="198" height="40" as="geometry" />
        </mxCell>
        <mxCell id="A9gymC7fybR9dy0JzckG-36" value="Mobile data collection" style="text;html=1;strokeColor=none;fillColor=none;align=center;verticalAlign=middle;whiteSpace=wrap;rounded=0;fontSize=16;fontStyle=1" vertex="1" parent="1">
          <mxGeometry x="658" y="20" width="198" height="40" as="geometry" />
        </mxCell>
        <mxCell id="A9gymC7fybR9dy0JzckG-37" value="Georeferencing" style="text;html=1;strokeColor=none;fillColor=none;align=center;verticalAlign=middle;whiteSpace=wrap;rounded=0;fontSize=16;fontStyle=1" vertex="1" parent="1">
          <mxGeometry x="114" y="120" width="198" height="40" as="geometry" />
        </mxCell>
        <mxCell id="A9gymC7fybR9dy0JzckG-40" style="edgeStyle=orthogonalEdgeStyle;rounded=0;orthogonalLoop=1;jettySize=auto;html=1;exitX=0.5;exitY=1;exitDx=0;exitDy=0;" edge="1" parent="1" source="A9gymC7fybR9dy0JzckG-15" target="A9gymC7fybR9dy0JzckG-15">
          <mxGeometry relative="1" as="geometry" />
        </mxCell>
        <mxCell id="A9gymC7fybR9dy0JzckG-42" style="edgeStyle=orthogonalEdgeStyle;rounded=0;orthogonalLoop=1;jettySize=auto;html=1;exitX=0.5;exitY=1;exitDx=0;exitDy=0;" edge="1" parent="1" source="A9gymC7fybR9dy0JzckG-25" target="A9gymC7fybR9dy0JzckG-25">
          <mxGeometry relative="1" as="geometry" />
        </mxCell>
        <mxCell id="A9gymC7fybR9dy0JzckG-44" value="&lt;p class=&quot;MsoNormal&quot; style=&quot;font-size: 26px;&quot;&gt;Shelter and Camp&lt;br style=&quot;font-size: 26px;&quot;&gt;Management&lt;/p&gt;" style="text;html=1;strokeColor=none;fillColor=none;align=center;verticalAlign=middle;whiteSpace=wrap;rounded=0;fontSize=26;fontStyle=1;fontColor=#FFFFFF;" vertex="1" parent="1">
          <mxGeometry x="-190" y="280" width="220" height="40" as="geometry" />
        </mxCell>
        <mxCell id="A9gymC7fybR9dy0JzckG-45" value="&lt;p class=&quot;MsoNormal&quot; style=&quot;font-size: 26px;&quot;&gt;Mapping remote areas&lt;br style=&quot;font-size: 26px;&quot;&gt;to facilitate access&lt;/p&gt;" style="text;html=1;strokeColor=none;fillColor=none;align=center;verticalAlign=middle;whiteSpace=wrap;rounded=0;fontSize=26;fontStyle=1;fontColor=#FFFFFF;" vertex="1" parent="1">
          <mxGeometry x="186" y="-250" width="250" height="60" as="geometry" />
        </mxCell>
        <mxCell id="A9gymC7fybR9dy0JzckG-46" value="&lt;p class=&quot;MsoNormal&quot; style=&quot;font-size: 26px;&quot;&gt;Support operations&lt;br style=&quot;font-size: 26px;&quot;&gt;planning&lt;/p&gt;" style="text;html=1;strokeColor=none;fillColor=none;align=center;verticalAlign=middle;whiteSpace=wrap;rounded=0;fontSize=26;fontStyle=1;fontColor=#FFFFFF;" vertex="1" parent="1">
          <mxGeometry x="60" y="-160" width="250" height="60" as="geometry" />
        </mxCell>
        <mxCell id="A9gymC7fybR9dy0JzckG-47" value="&lt;p class=&quot;MsoNormal&quot;&gt;Support security&lt;br/&gt;decisions&lt;/p&gt;" style="text;html=1;strokeColor=none;fillColor=none;align=center;verticalAlign=middle;whiteSpace=wrap;rounded=0;fontSize=19;fontStyle=1;fontColor=#FFFFFF;" vertex="1" parent="1">
          <mxGeometry x="650" y="-250" width="250" height="60" as="geometry" />
        </mxCell>
        <mxCell id="A9gymC7fybR9dy0JzckG-48" value="&lt;p class=&quot;MsoNormal&quot; style=&quot;font-size: 26px;&quot;&gt;Keep track of field&lt;br style=&quot;font-size: 26px;&quot;&gt;operations&lt;/p&gt;" style="text;html=1;strokeColor=none;fillColor=none;align=center;verticalAlign=middle;whiteSpace=wrap;rounded=0;fontSize=26;fontStyle=1;fontColor=#FFFFFF;" vertex="1" parent="1">
          <mxGeometry x="754" y="-160" width="250" height="60" as="geometry" />
        </mxCell>
        <mxCell id="A9gymC7fybR9dy0JzckG-49" value="&lt;p class=&quot;MsoNormal&quot; style=&quot;font-size: 26px;&quot;&gt;Market Monitoring&lt;/p&gt;" style="text;html=1;strokeColor=none;fillColor=none;align=center;verticalAlign=middle;whiteSpace=wrap;rounded=0;fontSize=26;fontStyle=1;fontColor=#FFFFFF;" vertex="1" parent="1">
          <mxGeometry x="828" y="-90" width="250" height="60" as="geometry" />
        </mxCell>
        <mxCell id="A9gymC7fybR9dy0JzckG-50" value="&lt;p class=&quot;MsoNormal&quot; style=&quot;font-size: 26px;&quot;&gt;Situation Overview&lt;br style=&quot;font-size: 26px;&quot;&gt;Maps&lt;/p&gt;" style="text;html=1;strokeColor=none;fillColor=none;align=center;verticalAlign=middle;whiteSpace=wrap;rounded=0;fontSize=26;fontStyle=1;fontColor=#FFFFFF;" vertex="1" parent="1">
          <mxGeometry x="425" y="-270" width="250" height="60" as="geometry" />
        </mxCell>
        <mxCell id="A9gymC7fybR9dy0JzckG-51" value="&lt;p class=&quot;MsoNormal&quot; style=&quot;font-size: 26px;&quot;&gt;Risk Assessment&lt;/p&gt;" style="text;html=1;strokeColor=none;fillColor=none;align=center;verticalAlign=middle;whiteSpace=wrap;rounded=0;fontSize=26;fontStyle=1;fontColor=#FFFFFF;" vertex="1" parent="1">
          <mxGeometry x="1020" y="260" width="250" height="60" as="geometry" />
        </mxCell>
        <mxCell id="A9gymC7fybR9dy0JzckG-52" value="&lt;p class=&quot;MsoNormal&quot; style=&quot;font-size: 26px;&quot;&gt;Risk Communication&lt;/p&gt;" style="text;html=1;strokeColor=none;fillColor=none;align=center;verticalAlign=middle;whiteSpace=wrap;rounded=0;fontSize=26;fontStyle=1;fontColor=#FFFFFF;" vertex="1" parent="1">
          <mxGeometry x="1004" y="355.5" width="250" height="60" as="geometry" />
        </mxCell>
        <mxCell id="A9gymC7fybR9dy0JzckG-53" value="&lt;p class=&quot;MsoNormal&quot; style=&quot;font-size: 26px;&quot;&gt;Health Access Analysis&amp;nbsp;&lt;/p&gt;" style="text;html=1;strokeColor=none;fillColor=none;align=center;verticalAlign=middle;whiteSpace=wrap;rounded=0;fontSize=26;fontStyle=1;fontColor=#FFFFFF;" vertex="1" parent="1">
          <mxGeometry x="998" y="470" width="250" height="60" as="geometry" />
        </mxCell>
        <mxCell id="A9gymC7fybR9dy0JzckG-54" value="&lt;p class=&quot;MsoNormal&quot; style=&quot;font-size: 26px;&quot;&gt;Health Access Analysis&amp;nbsp;&lt;/p&gt;" style="text;html=1;strokeColor=none;fillColor=none;align=center;verticalAlign=middle;whiteSpace=wrap;rounded=0;fontSize=26;fontStyle=1;fontColor=#FFFFFF;" vertex="1" parent="1">
          <mxGeometry x="970" y="570" width="250" height="60" as="geometry" />
        </mxCell>
        <mxCell id="A9gymC7fybR9dy0JzckG-55" value="&lt;p class=&quot;MsoNormal&quot; style=&quot;font-size: 26px;&quot;&gt;Siete Selection&lt;/p&gt;" style="text;html=1;strokeColor=none;fillColor=none;align=center;verticalAlign=middle;whiteSpace=wrap;rounded=0;fontSize=26;fontStyle=1;fontColor=#FFFFFF;" vertex="1" parent="1">
          <mxGeometry x="930" y="640" width="250" height="60" as="geometry" />
        </mxCell>
        <mxCell id="A9gymC7fybR9dy0JzckG-56" value="&lt;p class=&quot;MsoNormal&quot; style=&quot;font-size: 26px;&quot;&gt;Monitoring&lt;/p&gt;" style="text;html=1;strokeColor=none;fillColor=none;align=center;verticalAlign=middle;whiteSpace=wrap;rounded=0;fontSize=26;fontStyle=1;fontColor=#FFFFFF;" vertex="1" parent="1">
          <mxGeometry x="891.35" y="710" width="250" height="60" as="geometry" />
        </mxCell>
        <mxCell id="A9gymC7fybR9dy0JzckG-57" value="&lt;p class=&quot;MsoNormal&quot;&gt;EVCA&lt;/p&gt;" style="text;html=1;strokeColor=none;fillColor=none;align=center;verticalAlign=middle;whiteSpace=wrap;rounded=0;fontSize=19;fontStyle=1;fontColor=#FFFFFF;" vertex="1" parent="1">
          <mxGeometry x="-44" y="-90" width="250" height="60" as="geometry" />
        </mxCell>
        <mxCell id="A9gymC7fybR9dy0JzckG-58" value="&lt;p class=&quot;MsoNormal&quot; style=&quot;font-size: 26px;&quot;&gt;Community Mapping&amp;nbsp;&lt;/p&gt;" style="text;html=1;strokeColor=none;fillColor=none;align=center;verticalAlign=middle;whiteSpace=wrap;rounded=0;fontSize=26;fontStyle=1;fontColor=#FFFFFF;" vertex="1" parent="1">
          <mxGeometry x="-64" y="-40" width="250" height="60" as="geometry" />
        </mxCell>
        <mxCell id="A9gymC7fybR9dy0JzckG-59" value="&lt;p class=&quot;MsoNormal&quot; style=&quot;font-size: 26px;&quot;&gt;Rapid Assessment&lt;/p&gt;" style="text;html=1;strokeColor=none;fillColor=none;align=center;verticalAlign=middle;whiteSpace=wrap;rounded=0;fontSize=26;fontStyle=1;fontColor=#FFFFFF;" vertex="1" parent="1">
          <mxGeometry x="-190" y="380" width="250" height="60" as="geometry" />
        </mxCell>
        <mxCell id="A9gymC7fybR9dy0JzckG-60" value="&lt;p class=&quot;MsoNormal&quot; style=&quot;font-size: 26px;&quot;&gt;Logistics and Supply Chain Management&lt;br style=&quot;font-size: 26px;&quot;&gt;&lt;/p&gt;" style="text;html=1;strokeColor=none;fillColor=none;align=center;verticalAlign=middle;whiteSpace=wrap;rounded=0;fontSize=26;fontStyle=1;fontColor=#FFFFFF;" vertex="1" parent="1">
          <mxGeometry x="692" y="910" width="250" height="60" as="geometry" />
        </mxCell>
        <mxCell id="A9gymC7fybR9dy0JzckG-61" value="&lt;p class=&quot;MsoNormal&quot; style=&quot;font-size: 26px;&quot;&gt;Community Engagement&lt;/p&gt;" style="text;html=1;strokeColor=none;fillColor=none;align=center;verticalAlign=middle;whiteSpace=wrap;rounded=0;fontSize=26;fontStyle=1;fontColor=#FFFFFF;" vertex="1" parent="1">
          <mxGeometry x="-136" y="44.75" width="250" height="60" as="geometry" />
        </mxCell>
        <mxCell id="A9gymC7fybR9dy0JzckG-62" value="&lt;p class=&quot;MsoNormal&quot; style=&quot;font-size: 26px;&quot;&gt;Tracking disease&lt;br style=&quot;font-size: 26px;&quot;&gt;outbreaks&lt;/p&gt;" style="text;html=1;strokeColor=none;fillColor=none;align=center;verticalAlign=middle;whiteSpace=wrap;rounded=0;fontSize=26;fontStyle=1;fontColor=#FFFFFF;" vertex="1" parent="1">
          <mxGeometry x="980" y="150" width="250" height="60" as="geometry" />
        </mxCell>
        <mxCell id="A9gymC7fybR9dy0JzckG-63" value="&lt;p class=&quot;MsoNormal&quot; style=&quot;font-size: 26px;&quot;&gt;WASH Planning&lt;/p&gt;" style="text;html=1;strokeColor=none;fillColor=none;align=center;verticalAlign=middle;whiteSpace=wrap;rounded=0;fontSize=26;fontStyle=1;fontColor=#FFFFFF;" vertex="1" parent="1">
          <mxGeometry x="840" y="790" width="250" height="60" as="geometry" />
        </mxCell>
        <mxCell id="A9gymC7fybR9dy0JzckG-64" value="&lt;p class=&quot;MsoNormal&quot; style=&quot;font-size: 26px;&quot;&gt;Maps for reports&amp;nbsp;&lt;/p&gt;" style="text;html=1;strokeColor=none;fillColor=none;align=center;verticalAlign=middle;whiteSpace=wrap;rounded=0;fontSize=26;fontStyle=1;fontColor=#FFFFFF;" vertex="1" parent="1">
          <mxGeometry x="-175" y="460" width="250" height="60" as="geometry" />
        </mxCell>
        <mxCell id="A9gymC7fybR9dy0JzckG-65" value="&lt;p class=&quot;MsoNormal&quot; style=&quot;font-size: 26px;&quot;&gt;Beneficiary selection&lt;/p&gt;" style="text;html=1;strokeColor=none;fillColor=none;align=center;verticalAlign=middle;whiteSpace=wrap;rounded=0;fontSize=26;fontStyle=1;fontColor=#FFFFFF;" vertex="1" parent="1">
          <mxGeometry x="-175" y="150" width="250" height="60" as="geometry" />
        </mxCell>
        <mxCell id="A9gymC7fybR9dy0JzckG-66" value="&lt;p class=&quot;MsoNormal&quot; style=&quot;font-size: 26px;&quot;&gt;3W Maps&lt;/p&gt;" style="text;html=1;strokeColor=none;fillColor=none;align=center;verticalAlign=middle;whiteSpace=wrap;rounded=0;fontSize=26;fontStyle=1;fontColor=#FFFFFF;" vertex="1" parent="1">
          <mxGeometry x="-154" y="530" width="250" height="60" as="geometry" />
        </mxCell>
        <mxCell id="A9gymC7fybR9dy0JzckG-67" value="&lt;p class=&quot;MsoNormal&quot; style=&quot;font-size: 26px;&quot;&gt;Needs Tracking&lt;/p&gt;" style="text;html=1;strokeColor=none;fillColor=none;align=center;verticalAlign=middle;whiteSpace=wrap;rounded=0;fontSize=26;fontStyle=1;fontColor=#FFFFFF;" vertex="1" parent="1">
          <mxGeometry x="-130" y="620" width="250" height="60" as="geometry" />
        </mxCell>
        <mxCell id="A9gymC7fybR9dy0JzckG-68" value="&lt;p class=&quot;MsoNormal&quot; style=&quot;font-size: 26px;&quot;&gt;Reference maps&lt;/p&gt;" style="text;html=1;strokeColor=none;fillColor=none;align=center;verticalAlign=middle;whiteSpace=wrap;rounded=0;fontSize=26;fontStyle=1;fontColor=#FFFFFF;" vertex="1" parent="1">
          <mxGeometry x="-90" y="700" width="250" height="60" as="geometry" />
        </mxCell>
        <mxCell id="A9gymC7fybR9dy0JzckG-69" value="&lt;p class=&quot;MsoNormal&quot; style=&quot;font-size: 26px;&quot;&gt;Humanitarian Access&lt;br style=&quot;font-size: 26px;&quot;&gt;Maps&lt;/p&gt;" style="text;html=1;strokeColor=none;fillColor=none;align=center;verticalAlign=middle;whiteSpace=wrap;rounded=0;fontSize=26;fontStyle=1;fontColor=#FFFFFF;" vertex="1" parent="1">
          <mxGeometry x="21" y="800" width="250" height="60" as="geometry" />
        </mxCell>
        <mxCell id="A9gymC7fybR9dy0JzckG-70" value="&lt;p class=&quot;MsoNormal&quot; style=&quot;font-size: 26px;&quot;&gt;Min and Hazard Awareness&lt;/p&gt;" style="text;html=1;strokeColor=none;fillColor=none;align=center;verticalAlign=middle;whiteSpace=wrap;rounded=0;fontSize=26;fontStyle=1;fontColor=#FFFFFF;" vertex="1" parent="1">
          <mxGeometry x="140" y="910" width="250" height="60" as="geometry" />
        </mxCell>
        <mxCell id="A9gymC7fybR9dy0JzckG-74" value="" style="rounded=0;whiteSpace=wrap;html=1;rotation=-30;strokeColor=none;fillColor=#F5333F;" vertex="1" parent="1">
          <mxGeometry x="901.85" y="-165.44" width="699.1" height="50" as="geometry" />
        </mxCell>
        <mxCell id="A9gymC7fybR9dy0JzckG-73" value="" style="rounded=0;whiteSpace=wrap;html=1;rotation=-30;strokeColor=none;fillColor=#EFF2F3;" vertex="1" parent="1">
          <mxGeometry x="881.71" y="-66.01" width="561.32" height="50" as="geometry" />
        </mxCell>
        <mxCell id="A9gymC7fybR9dy0JzckG-76" value="&lt;b&gt;&lt;font style=&quot;font-size: 30px;&quot; color=&quot;#ffffff&quot; face=&quot;Verdana&quot;&gt;Core GIS functionality&lt;/font&gt;&lt;/b&gt;" style="rounded=0;whiteSpace=wrap;html=1;strokeColor=none;fillColor=#A8AAAC;" vertex="1" parent="1">
          <mxGeometry x="1240" y="-70" width="452" height="130" as="geometry" />
        </mxCell>
        <mxCell id="A9gymC7fybR9dy0JzckG-71" value="" style="rounded=0;whiteSpace=wrap;html=1;rotation=-30;strokeColor=none;fillColor=#A8AAAC;" vertex="1" parent="1">
          <mxGeometry x="746.35" y="64.75" width="540" height="40" as="geometry" />
        </mxCell>
        <mxCell id="A9gymC7fybR9dy0JzckG-78" value="&lt;b&gt;&lt;font style=&quot;font-size: 30px;&quot; face=&quot;Verdana&quot;&gt;GIS Techniques&lt;/font&gt;&lt;/b&gt;" style="rounded=0;whiteSpace=wrap;html=1;strokeColor=none;fillColor=#EFF2F3;" vertex="1" parent="1">
          <mxGeometry x="1390" y="-202.70999999999998" width="450" height="124.53" as="geometry" />
        </mxCell>
        <mxCell id="A9gymC7fybR9dy0JzckG-79" value="&lt;font color=&quot;#ffffff&quot; style=&quot;font-size: 30px;&quot;&gt;&lt;b&gt;GIS Products and Services in Humanitarian Assistance&lt;/b&gt;&lt;/font&gt;" style="rounded=0;whiteSpace=wrap;html=1;strokeColor=none;fillColor=#F5333F;" vertex="1" parent="1">
          <mxGeometry x="1540" y="-340" width="450" height="130" as="geometry" />
        </mxCell>
      </root>
    </mxGraphModel>
  </diagram>
</mxfile>
